<svg width="200" height="200" viewBox="0 0 200 200" fill="none" xmlns="http://www.w3.org/2000/svg">
<rect width="200" height="200" fill="#F7F7F7"/>
<path d="M53.5839 152.2V148H55.4919C55.9479 148 56.3499 148.088 56.6979 148.264C57.0459 148.436 57.3179 148.678 57.5139 148.99C57.7099 149.302 57.8079 149.672 57.8079 150.1C57.8079 150.524 57.7099 150.894 57.5139 151.21C57.3179 151.522 57.0459 151.766 56.6979 151.942C56.3499 152.114 55.9479 152.2 55.4919 152.2H53.5839ZM54.5559 151.402H55.4439C55.7239 151.402 55.9659 151.35 56.1699 151.246C56.3779 151.138 56.5379 150.986 56.6499 150.79C56.7659 150.594 56.8239 150.364 56.8239 150.1C56.8239 149.832 56.7659 149.602 56.6499 149.41C56.5379 149.214 56.3779 149.064 56.1699 148.96C55.9659 148.852 55.7239 148.798 55.4439 148.798H54.5559V151.402ZM59.435 149.692H61.457V150.448H59.435V149.692ZM59.507 151.42H61.793V152.2H58.541V148H61.715V148.78H59.507V151.42ZM63.9464 152.272C63.6104 152.272 63.2884 152.228 62.9804 152.14C62.6724 152.048 62.4244 151.93 62.2364 151.786L62.5664 151.054C62.7464 151.182 62.9584 151.288 63.2024 151.372C63.4504 151.452 63.7004 151.492 63.9524 151.492C64.1444 151.492 64.2984 151.474 64.4144 151.438C64.5344 151.398 64.6224 151.344 64.6784 151.276C64.7344 151.208 64.7624 151.13 64.7624 151.042C64.7624 150.93 64.7184 150.842 64.6304 150.778C64.5424 150.71 64.4264 150.656 64.2824 150.616C64.1384 150.572 63.9784 150.532 63.8024 150.496C63.6304 150.456 63.4564 150.408 63.2804 150.352C63.1084 150.296 62.9504 150.224 62.8064 150.136C62.6624 150.048 62.5444 149.932 62.4524 149.788C62.3644 149.644 62.3204 149.46 62.3204 149.236C62.3204 148.996 62.3844 148.778 62.5124 148.582C62.6444 148.382 62.8404 148.224 63.1004 148.108C63.3644 147.988 63.6944 147.928 64.0904 147.928C64.3544 147.928 64.6144 147.96 64.8704 148.024C65.1264 148.084 65.3524 148.176 65.5484 148.3L65.2484 149.038C65.0524 148.926 64.8564 148.844 64.6604 148.792C64.4644 148.736 64.2724 148.708 64.0844 148.708C63.8964 148.708 63.7424 148.73 63.6224 148.774C63.5024 148.818 63.4164 148.876 63.3644 148.948C63.3124 149.016 63.2864 149.096 63.2864 149.188C63.2864 149.296 63.3304 149.384 63.4184 149.452C63.5064 149.516 63.6224 149.568 63.7664 149.608C63.9104 149.648 64.0684 149.688 64.2404 149.728C64.4164 149.768 64.5904 149.814 64.7624 149.866C64.9384 149.918 65.0984 149.988 65.2424 150.076C65.3864 150.164 65.5024 150.28 65.5904 150.424C65.6824 150.568 65.7284 150.75 65.7284 150.97C65.7284 151.206 65.6624 151.422 65.5304 151.618C65.3984 151.814 65.2004 151.972 64.9364 152.092C64.6764 152.212 64.3464 152.272 63.9464 152.272ZM66.3925 152.2V148H67.3645V152.2H66.3925ZM70.3893 152.272C70.0573 152.272 69.7513 152.22 69.4713 152.116C69.1953 152.008 68.9533 151.856 68.7453 151.66C68.5413 151.464 68.3813 151.234 68.2653 150.97C68.1533 150.706 68.0973 150.416 68.0973 150.1C68.0973 149.784 68.1533 149.494 68.2653 149.23C68.3813 148.966 68.5433 148.736 68.7513 148.54C68.9593 148.344 69.2033 148.194 69.4833 148.09C69.7633 147.982 70.0713 147.928 70.4073 147.928C70.7793 147.928 71.1133 147.99 71.4093 148.114C71.7093 148.238 71.9613 148.418 72.1653 148.654L71.5413 149.23C71.3893 149.07 71.2233 148.952 71.0433 148.876C70.8633 148.796 70.6673 148.756 70.4553 148.756C70.2513 148.756 70.0653 148.788 69.8973 148.852C69.7293 148.916 69.5833 149.008 69.4593 149.128C69.3393 149.248 69.2453 149.39 69.1773 149.554C69.1133 149.718 69.0813 149.9 69.0813 150.1C69.0813 150.296 69.1133 150.476 69.1773 150.64C69.2453 150.804 69.3393 150.948 69.4593 151.072C69.5833 151.192 69.7273 151.284 69.8913 151.348C70.0593 151.412 70.2433 151.444 70.4433 151.444C70.6353 151.444 70.8213 151.414 71.0013 151.354C71.1853 151.29 71.3633 151.184 71.5353 151.036L72.0873 151.738C71.8593 151.91 71.5933 152.042 71.2893 152.134C70.9893 152.226 70.6893 152.272 70.3893 152.272ZM71.1993 151.612V150.034H72.0873V151.738L71.1993 151.612ZM72.9902 152.2V148H73.7942L76.2722 151.024H75.8822V148H76.8422V152.2H76.0442L73.5602 149.176H73.9502V152.2H72.9902ZM80.8551 152.272C80.5471 152.272 80.2731 152.222 80.0331 152.122C79.7931 152.022 79.6031 151.886 79.4631 151.714C79.3231 151.542 79.2531 151.344 79.2531 151.12C79.2531 150.912 79.2991 150.726 79.3911 150.562C79.4831 150.394 79.6291 150.238 79.8291 150.094C80.0291 149.946 80.2831 149.802 80.5911 149.662C80.8151 149.558 80.9911 149.466 81.1191 149.386C81.2471 149.306 81.3371 149.23 81.3891 149.158C81.4411 149.082 81.4671 149.006 81.4671 148.93C81.4671 148.826 81.4311 148.742 81.3591 148.678C81.2911 148.614 81.1891 148.582 81.0531 148.582C80.9091 148.582 80.7971 148.618 80.7171 148.69C80.6371 148.762 80.5971 148.854 80.5971 148.966C80.5971 149.026 80.6091 149.086 80.6331 149.146C80.6571 149.202 80.7031 149.268 80.7711 149.344C80.8391 149.416 80.9351 149.51 81.0591 149.626L83.2731 151.678L82.7631 152.272L80.3211 150.004C80.1811 149.876 80.0691 149.756 79.9851 149.644C79.9011 149.532 79.8391 149.422 79.7991 149.314C79.7631 149.206 79.7451 149.094 79.7451 148.978C79.7451 148.774 79.7991 148.594 79.9071 148.438C80.0151 148.282 80.1671 148.162 80.3631 148.078C80.5591 147.99 80.7891 147.946 81.0531 147.946C81.2971 147.946 81.5071 147.986 81.6831 148.066C81.8631 148.142 82.0031 148.252 82.1031 148.396C82.2071 148.54 82.2591 148.712 82.2591 148.912C82.2591 149.088 82.2151 149.25 82.1271 149.398C82.0391 149.542 81.9011 149.678 81.7131 149.806C81.5291 149.934 81.2871 150.064 80.9871 150.196C80.7831 150.288 80.6211 150.378 80.5011 150.466C80.3851 150.55 80.3011 150.636 80.2491 150.724C80.1971 150.812 80.1711 150.91 80.1711 151.018C80.1711 151.118 80.2011 151.208 80.2611 151.288C80.3251 151.368 80.4131 151.43 80.5251 151.474C80.6371 151.518 80.7691 151.54 80.9211 151.54C81.1651 151.54 81.3891 151.484 81.5931 151.372C81.7971 151.256 81.9691 151.086 82.1091 150.862C82.2531 150.634 82.3551 150.358 82.4151 150.034L83.1651 150.268C83.0811 150.676 82.9311 151.03 82.7151 151.33C82.4991 151.63 82.2331 151.862 81.9171 152.026C81.6011 152.19 81.2471 152.272 80.8551 152.272ZM85.5996 152.2V148H86.4036L88.1916 150.964H87.7656L89.5236 148H90.3216L90.3336 152.2H89.4216L89.4156 149.398H89.5836L88.1796 151.756H87.7416L86.3076 149.398H86.5116V152.2H85.5996ZM90.778 152.2L92.65 148H93.61L95.488 152.2H94.468L92.932 148.492H93.316L91.774 152.2H90.778ZM91.714 151.3L91.972 150.562H94.132L94.396 151.3H91.714ZM95.9238 152.2V148H97.7418C98.1178 148 98.4418 148.062 98.7138 148.186C98.9858 148.306 99.1958 148.48 99.3438 148.708C99.4918 148.936 99.5658 149.208 99.5658 149.524C99.5658 149.836 99.4918 150.106 99.3438 150.334C99.1958 150.558 98.9858 150.73 98.7138 150.85C98.4418 150.97 98.1178 151.03 97.7418 151.03H96.4638L96.8958 150.604V152.2H95.9238ZM98.5938 152.2L97.5438 150.676H98.5818L99.6438 152.2H98.5938ZM96.8958 150.712L96.4638 150.256H97.6878C97.9878 150.256 98.2118 150.192 98.3598 150.064C98.5078 149.932 98.5818 149.752 98.5818 149.524C98.5818 149.292 98.5078 149.112 98.3598 148.984C98.2118 148.856 97.9878 148.792 97.6878 148.792H96.4638L96.8958 148.33V150.712ZM101.206 151.24L101.152 150.118L103.162 148H104.242L102.43 149.95L101.89 150.526L101.206 151.24ZM100.336 152.2V148H101.302V152.2H100.336ZM103.21 152.2L101.716 150.37L102.352 149.68L104.344 152.2H103.21ZM105.671 149.692H107.693V150.448H105.671V149.692ZM105.743 151.42H108.029V152.2H104.777V148H107.951V148.78H105.743V151.42ZM109.673 152.2V148.792H108.329V148H111.989V148.792H110.645V152.2H109.673ZM112.512 152.2V148H113.484V152.2H112.512ZM114.48 152.2V148H115.284L117.762 151.024H117.372V148H118.332V152.2H117.534L115.05 149.176H115.44V152.2H114.48ZM121.354 152.272C121.022 152.272 120.716 152.22 120.436 152.116C120.16 152.008 119.918 151.856 119.71 151.66C119.506 151.464 119.346 151.234 119.23 150.97C119.118 150.706 119.062 150.416 119.062 150.1C119.062 149.784 119.118 149.494 119.23 149.23C119.346 148.966 119.508 148.736 119.716 148.54C119.924 148.344 120.168 148.194 120.448 148.09C120.728 147.982 121.036 147.928 121.372 147.928C121.744 147.928 122.078 147.99 122.374 148.114C122.674 148.238 122.926 148.418 123.13 148.654L122.506 149.23C122.354 149.07 122.188 148.952 122.008 148.876C121.828 148.796 121.632 148.756 121.42 148.756C121.216 148.756 121.03 148.788 120.862 148.852C120.694 148.916 120.548 149.008 120.424 149.128C120.304 149.248 120.21 149.39 120.142 149.554C120.078 149.718 120.046 149.9 120.046 150.1C120.046 150.296 120.078 150.476 120.142 150.64C120.21 150.804 120.304 150.948 120.424 151.072C120.548 151.192 120.692 151.284 120.856 151.348C121.024 151.412 121.208 151.444 121.408 151.444C121.6 151.444 121.786 151.414 121.966 151.354C122.15 151.29 122.328 151.184 122.5 151.036L123.052 151.738C122.824 151.91 122.558 152.042 122.254 152.134C121.954 152.226 121.654 152.272 121.354 152.272ZM122.164 151.612V150.034H123.052V151.738L122.164 151.612ZM125.102 152.2L126.974 148H127.934L129.812 152.2H128.792L127.256 148.492H127.64L126.098 152.2H125.102ZM126.038 151.3L126.296 150.562H128.456L128.72 151.3H126.038ZM132.217 152.272C131.885 152.272 131.579 152.22 131.299 152.116C131.023 152.008 130.781 151.856 130.573 151.66C130.369 151.464 130.209 151.234 130.093 150.97C129.981 150.706 129.925 150.416 129.925 150.1C129.925 149.784 129.981 149.494 130.093 149.23C130.209 148.966 130.371 148.736 130.579 148.54C130.787 148.344 131.031 148.194 131.311 148.09C131.591 147.982 131.899 147.928 132.235 147.928C132.607 147.928 132.941 147.99 133.237 148.114C133.537 148.238 133.789 148.418 133.993 148.654L133.369 149.23C133.217 149.07 133.051 148.952 132.871 148.876C132.691 148.796 132.495 148.756 132.283 148.756C132.079 148.756 131.893 148.788 131.725 148.852C131.557 148.916 131.411 149.008 131.287 149.128C131.167 149.248 131.073 149.39 131.005 149.554C130.941 149.718 130.909 149.9 130.909 150.1C130.909 150.296 130.941 150.476 131.005 150.64C131.073 150.804 131.167 150.948 131.287 151.072C131.411 151.192 131.555 151.284 131.719 151.348C131.887 151.412 132.071 151.444 132.271 151.444C132.463 151.444 132.649 151.414 132.829 151.354C133.013 151.29 133.191 151.184 133.363 151.036L133.915 151.738C133.687 151.91 133.421 152.042 133.117 152.134C132.817 152.226 132.517 152.272 132.217 152.272ZM133.027 151.612V150.034H133.915V151.738L133.027 151.612ZM135.712 149.692H137.734V150.448H135.712V149.692ZM135.784 151.42H138.07V152.2H134.818V148H137.992V148.78H135.784V151.42ZM138.844 152.2V148H139.648L142.126 151.024H141.736V148H142.696V152.2H141.898L139.414 149.176H139.804V152.2H138.844ZM145.699 152.272C145.375 152.272 145.073 152.22 144.793 152.116C144.517 152.008 144.277 151.856 144.073 151.66C143.869 151.464 143.709 151.234 143.593 150.97C143.481 150.706 143.425 150.416 143.425 150.1C143.425 149.784 143.481 149.494 143.593 149.23C143.709 148.966 143.869 148.736 144.073 148.54C144.281 148.344 144.523 148.194 144.799 148.09C145.075 147.982 145.377 147.928 145.705 147.928C146.069 147.928 146.397 147.992 146.689 148.12C146.985 148.244 147.233 148.428 147.433 148.672L146.809 149.248C146.665 149.084 146.505 148.962 146.329 148.882C146.153 148.798 145.961 148.756 145.753 148.756C145.557 148.756 145.377 148.788 145.213 148.852C145.049 148.916 144.907 149.008 144.787 149.128C144.667 149.248 144.573 149.39 144.505 149.554C144.441 149.718 144.409 149.9 144.409 150.1C144.409 150.3 144.441 150.482 144.505 150.646C144.573 150.81 144.667 150.952 144.787 151.072C144.907 151.192 145.049 151.284 145.213 151.348C145.377 151.412 145.557 151.444 145.753 151.444C145.961 151.444 146.153 151.404 146.329 151.324C146.505 151.24 146.665 151.114 146.809 150.946L147.433 151.522C147.233 151.766 146.985 151.952 146.689 152.08C146.397 152.208 146.067 152.272 145.699 152.272ZM149.099 152.2V150.484L149.321 151.072L147.473 148H148.505L149.921 150.358H149.327L150.749 148H151.703L149.855 151.072L150.071 150.484V152.2H149.099Z" fill="#171717"/>
<path d="M103.484 116.069H92.2843L77.4843 94.469H63.4843V116.069H53.4843V84.869H78.9523C82.7663 84.869 86.2363 82.553 87.5863 78.987C90.1803 72.135 85.1883 65.669 78.6863 65.669H43.4863V56.069H79.2863C80.7283 56.069 82.1343 56.227 83.4863 56.525C92.1823 58.445 98.6863 65.797 98.6863 75.069C98.6863 82.999 93.9263 89.819 87.1083 92.827L103.486 116.069H103.484ZM103.484 82.383L102.262 82.809L96.9423 91.957C96.6623 92.459 96.6863 93.077 97.0023 93.557L113.372 118.129C113.764 118.521 114.278 118.469 114.76 118.469H115.012C115.572 118.435 116.07 118.389 116.312 117.883L121.094 109.549C121.424 108.771 120.782 107.743 120.128 107.575C118.542 107.169 117.282 105.539 117.144 105.299M104.052 79.807L144.61 61.079C144.844 60.971 145.116 61.109 145.168 61.361L146.854 69.445C146.928 69.805 147.408 69.881 147.592 69.563L156.46 54.205C156.576 54.003 156.498 53.747 156.288 53.645L142.248 46.841C141.942 46.693 141.604 46.969 141.686 47.297L143.804 55.749C143.85 55.933 143.76 56.125 143.588 56.207L103.714 75.159C103.574 75.225 103.486 75.365 103.486 75.519V79.441C103.486 79.733 103.788 79.927 104.054 79.803L104.052 79.807ZM119.36 103.661C121.588 106.745 124.558 103.661 124.558 103.661L142.612 72.615C142.758 72.371 142.564 72.073 142.26 72.073H132.222C131.79 72.073 131.392 72.285 131.178 72.631L115.914 98.499C115.914 98.499 117.13 100.577 119.356 103.663L119.36 103.661Z" fill="#171717"/>
<path d="M143.122 143.195V128.593H137.363V125.2H153.045V128.593H147.286V143.195H143.122Z" fill="#171717"/>
<path d="M118.633 143.195V125.2H122.078L132.695 138.156H131.024V125.2H135.137V143.195H131.718L121.075 130.239H122.746V143.195H118.633Z" fill="#171717"/>
<path d="M96.5859 143.195L104.607 125.2H108.72L116.766 143.195H112.396L105.815 127.308H107.46L100.853 143.195H96.5859ZM100.596 139.339L101.702 136.177H110.956L112.087 139.339H100.596Z" fill="#171717"/>
<path d="M86.1483 143.195L78.3848 125.2H82.8835L89.6702 141.138H87.0223L93.9118 125.2H98.0507L90.2614 143.195H86.1483Z" fill="#171717"/>
<path d="M72.3906 143.195V125.2H76.5552V143.195H72.3906Z" fill="#171717"/>
<path d="M53.4863 143.195V125.2H61.2756C62.8865 125.2 64.2747 125.466 65.4401 125.997C66.6055 126.511 67.5053 127.257 68.1394 128.233C68.7735 129.21 69.0905 130.376 69.0905 131.73C69.0905 133.066 68.7735 134.223 68.1394 135.2C67.5053 136.16 66.6055 136.897 65.4401 137.411C64.2747 137.925 62.8865 138.182 61.2756 138.182H55.8L57.6509 136.357V143.195H53.4863ZM64.926 143.195L60.4272 136.665H64.8746L69.4247 143.195H64.926ZM57.6509 136.82L55.8 134.866H61.0442C62.3296 134.866 63.2893 134.592 63.9234 134.043C64.5575 133.478 64.8746 132.706 64.8746 131.73C64.8746 130.736 64.5575 129.964 63.9234 129.416C63.2893 128.868 62.3296 128.593 61.0442 128.593H55.8L57.6509 126.614V136.82Z" fill="#171717"/>
</svg>
