<svg width="200" height="200" viewBox="0 0 200 200" fill="none" xmlns="http://www.w3.org/2000/svg">
<rect width="200" height="200" fill="#F7F7F7"/>
<path d="M53.6254 151.7V147.15H54.4964L56.4334 150.361H55.9719L57.8764 147.15H58.7409L58.7539 151.7H57.7659L57.7594 148.665H57.9414L56.4204 151.219H55.9459L54.3924 148.665H54.6134V151.7H53.6254ZM60.8019 148.983H62.9924V149.802H60.8019V148.983ZM60.8799 150.855H63.3564V151.7H59.8334V147.15H63.2719V147.995H60.8799V150.855ZM64.1943 151.7V147.15H66.2613C66.7553 147.15 67.1908 147.245 67.5678 147.436C67.9448 147.622 68.2395 147.885 68.4518 148.223C68.6641 148.561 68.7703 148.961 68.7703 149.425C68.7703 149.884 68.6641 150.285 68.4518 150.628C68.2395 150.966 67.9448 151.23 67.5678 151.421C67.1908 151.607 66.7553 151.7 66.2613 151.7H64.1943ZM65.2473 150.836H66.2093C66.5126 150.836 66.7748 150.779 66.9958 150.667C67.2211 150.55 67.3945 150.385 67.5158 150.173C67.6415 149.96 67.7043 149.711 67.7043 149.425C67.7043 149.135 67.6415 148.886 67.5158 148.678C67.3945 148.465 67.2211 148.303 66.9958 148.19C66.7748 148.073 66.5126 148.015 66.2093 148.015H65.2473V150.836ZM69.5644 151.7V147.15H70.6174V151.7H69.5644ZM71.0992 151.7L73.1272 147.15H74.1672L76.2017 151.7H75.0967L73.4327 147.683H73.8487L72.1782 151.7H71.0992ZM72.1132 150.725L72.3927 149.926H74.7327L75.0187 150.725H72.1132ZM80.0096 151.778C79.6456 151.778 79.2968 151.73 78.9631 151.635C78.6294 151.535 78.3608 151.408 78.1571 151.252L78.5146 150.459C78.7096 150.597 78.9393 150.712 79.2036 150.803C79.4723 150.89 79.7431 150.933 80.0161 150.933C80.2241 150.933 80.3909 150.914 80.5166 150.875C80.6466 150.831 80.7419 150.773 80.8026 150.699C80.8633 150.625 80.8936 150.541 80.8936 150.446C80.8936 150.324 80.8459 150.229 80.7506 150.16C80.6553 150.086 80.5296 150.027 80.3736 149.984C80.2176 149.936 80.0443 149.893 79.8536 149.854C79.6673 149.811 79.4788 149.759 79.2881 149.698C79.1018 149.637 78.9306 149.559 78.7746 149.464C78.6186 149.369 78.4908 149.243 78.3911 149.087C78.2958 148.931 78.2481 148.732 78.2481 148.489C78.2481 148.229 78.3174 147.993 78.4561 147.781C78.5991 147.564 78.8114 147.393 79.0931 147.267C79.3791 147.137 79.7366 147.072 80.1656 147.072C80.4516 147.072 80.7333 147.107 81.0106 147.176C81.2879 147.241 81.5328 147.341 81.7451 147.475L81.4201 148.275C81.2078 148.153 80.9954 148.064 80.7831 148.008C80.5708 147.947 80.3628 147.917 80.1591 147.917C79.9554 147.917 79.7886 147.941 79.6586 147.989C79.5286 148.036 79.4354 148.099 79.3791 148.177C79.3228 148.251 79.2946 148.337 79.2946 148.437C79.2946 148.554 79.3423 148.649 79.4376 148.723C79.5329 148.792 79.6586 148.849 79.8146 148.892C79.9706 148.935 80.1418 148.979 80.3281 149.022C80.5188 149.065 80.7073 149.115 80.8936 149.172C81.0843 149.228 81.2576 149.304 81.4136 149.399C81.5696 149.494 81.6953 149.62 81.7906 149.776C81.8903 149.932 81.9401 150.129 81.9401 150.368C81.9401 150.623 81.8686 150.857 81.7256 151.07C81.5826 151.282 81.3681 151.453 81.0821 151.583C80.8004 151.713 80.4429 151.778 80.0096 151.778ZM84.8696 151.778C84.51 151.778 84.1763 151.72 83.8686 151.603C83.5653 151.486 83.301 151.321 83.0756 151.109C82.8546 150.896 82.6813 150.647 82.5556 150.361C82.4343 150.075 82.3736 149.763 82.3736 149.425C82.3736 149.087 82.4343 148.775 82.5556 148.489C82.6813 148.203 82.8568 147.954 83.0821 147.742C83.3075 147.529 83.5718 147.365 83.8751 147.248C84.1785 147.131 84.5078 147.072 84.8631 147.072C85.2228 147.072 85.5521 147.131 85.8511 147.248C86.1545 147.365 86.4166 147.529 86.6376 147.742C86.863 147.954 87.0385 148.203 87.1641 148.489C87.2898 148.771 87.3526 149.083 87.3526 149.425C87.3526 149.763 87.2898 150.077 87.1641 150.368C87.0385 150.654 86.863 150.903 86.6376 151.115C86.4166 151.323 86.1545 151.486 85.8511 151.603C85.5521 151.72 85.225 151.778 84.8696 151.778ZM84.8631 150.881C85.0668 150.881 85.2531 150.846 85.4221 150.777C85.5955 150.708 85.7471 150.608 85.8771 150.478C86.0071 150.348 86.1068 150.194 86.1761 150.017C86.2498 149.839 86.2866 149.642 86.2866 149.425C86.2866 149.208 86.2498 149.011 86.1761 148.834C86.1068 148.656 86.0071 148.502 85.8771 148.372C85.7515 148.242 85.602 148.142 85.4286 148.073C85.2553 148.004 85.0668 147.969 84.8631 147.969C84.6595 147.969 84.471 148.004 84.2976 148.073C84.1286 148.142 83.9791 148.242 83.8491 148.372C83.7191 148.502 83.6173 148.656 83.5436 148.834C83.4743 149.011 83.4396 149.208 83.4396 149.425C83.4396 149.637 83.4743 149.835 83.5436 150.017C83.6173 150.194 83.717 150.348 83.8426 150.478C83.9726 150.608 84.1243 150.708 84.2976 150.777C84.471 150.846 84.6595 150.881 84.8631 150.881ZM88.144 151.7V147.15H89.197V150.842H91.4785V151.7H88.144ZM94.0376 151.778C93.3919 151.778 92.8871 151.598 92.5231 151.239C92.1591 150.879 91.9771 150.365 91.9771 149.698V147.15H93.0301V149.659C93.0301 150.092 93.1189 150.404 93.2966 150.595C93.4742 150.786 93.7234 150.881 94.0441 150.881C94.3647 150.881 94.6139 150.786 94.7916 150.595C94.9692 150.404 95.0581 150.092 95.0581 149.659V147.15H96.0981V149.698C96.0981 150.365 95.9161 150.879 95.5521 151.239C95.1881 151.598 94.6832 151.778 94.0376 151.778ZM98.0049 151.7V148.008H96.5489V147.15H100.514V148.008H99.0579V151.7H98.0049ZM101.081 151.7V147.15H102.134V151.7H101.081ZM105.423 151.778C105.064 151.778 104.73 151.72 104.422 151.603C104.119 151.486 103.855 151.321 103.629 151.109C103.408 150.896 103.235 150.647 103.109 150.361C102.988 150.075 102.927 149.763 102.927 149.425C102.927 149.087 102.988 148.775 103.109 148.489C103.235 148.203 103.41 147.954 103.636 147.742C103.861 147.529 104.125 147.365 104.429 147.248C104.732 147.131 105.061 147.072 105.417 147.072C105.776 147.072 106.106 147.131 106.405 147.248C106.708 147.365 106.97 147.529 107.191 147.742C107.417 147.954 107.592 148.203 107.718 148.489C107.843 148.771 107.906 149.083 107.906 149.425C107.906 149.763 107.843 150.077 107.718 150.368C107.592 150.654 107.417 150.903 107.191 151.115C106.97 151.323 106.708 151.486 106.405 151.603C106.106 151.72 105.779 151.778 105.423 151.778ZM105.417 150.881C105.62 150.881 105.807 150.846 105.976 150.777C106.149 150.708 106.301 150.608 106.431 150.478C106.561 150.348 106.66 150.194 106.73 150.017C106.803 149.839 106.84 149.642 106.84 149.425C106.84 149.208 106.803 149.011 106.73 148.834C106.66 148.656 106.561 148.502 106.431 148.372C106.305 148.242 106.156 148.142 105.982 148.073C105.809 148.004 105.62 147.969 105.417 147.969C105.213 147.969 105.025 148.004 104.851 148.073C104.682 148.142 104.533 148.242 104.403 148.372C104.273 148.502 104.171 148.656 104.097 148.834C104.028 149.011 103.993 149.208 103.993 149.425C103.993 149.637 104.028 149.835 104.097 150.017C104.171 150.194 104.271 150.348 104.396 150.478C104.526 150.608 104.678 150.708 104.851 150.777C105.025 150.846 105.213 150.881 105.417 150.881ZM108.698 151.7V147.15H109.569L112.253 150.426H111.831V147.15H112.871V151.7H112.006L109.315 148.424H109.738V151.7H108.698ZM115.442 151.778C115.078 151.778 114.729 151.73 114.396 151.635C114.062 151.535 113.793 151.408 113.59 151.252L113.947 150.459C114.142 150.597 114.372 150.712 114.636 150.803C114.905 150.89 115.176 150.933 115.449 150.933C115.657 150.933 115.824 150.914 115.949 150.875C116.079 150.831 116.175 150.773 116.235 150.699C116.296 150.625 116.326 150.541 116.326 150.446C116.326 150.324 116.279 150.229 116.183 150.16C116.088 150.086 115.962 150.027 115.806 149.984C115.65 149.936 115.477 149.893 115.286 149.854C115.1 149.811 114.911 149.759 114.721 149.698C114.534 149.637 114.363 149.559 114.207 149.464C114.051 149.369 113.923 149.243 113.824 149.087C113.728 148.931 113.681 148.732 113.681 148.489C113.681 148.229 113.75 147.993 113.889 147.781C114.032 147.564 114.244 147.393 114.526 147.267C114.812 147.137 115.169 147.072 115.598 147.072C115.884 147.072 116.166 147.107 116.443 147.176C116.721 147.241 116.965 147.341 117.178 147.475L116.853 148.275C116.64 148.153 116.428 148.064 116.216 148.008C116.003 147.947 115.795 147.917 115.592 147.917C115.388 147.917 115.221 147.941 115.091 147.989C114.961 148.036 114.868 148.099 114.812 148.177C114.755 148.251 114.727 148.337 114.727 148.437C114.727 148.554 114.775 148.649 114.87 148.723C114.966 148.792 115.091 148.849 115.247 148.892C115.403 148.935 115.574 148.979 115.761 149.022C115.951 149.065 116.14 149.115 116.326 149.172C116.517 149.228 116.69 149.304 116.846 149.399C117.002 149.494 117.128 149.62 117.223 149.776C117.323 149.932 117.373 150.129 117.373 150.368C117.373 150.623 117.301 150.857 117.158 151.07C117.015 151.282 116.801 151.453 116.515 151.583C116.233 151.713 115.876 151.778 115.442 151.778ZM119.933 151.7V147.15H121.903C122.31 147.15 122.661 147.217 122.956 147.352C123.25 147.482 123.478 147.67 123.638 147.917C123.798 148.164 123.879 148.459 123.879 148.801C123.879 149.139 123.798 149.432 123.638 149.679C123.478 149.926 123.25 150.116 122.956 150.251C122.661 150.381 122.31 150.446 121.903 150.446H120.518L120.986 149.971V151.7H119.933ZM120.986 150.088L120.518 149.588H121.844C122.169 149.588 122.412 149.518 122.572 149.38C122.732 149.241 122.813 149.048 122.813 148.801C122.813 148.55 122.732 148.355 122.572 148.216C122.412 148.077 122.169 148.008 121.844 148.008H120.518L120.986 147.508V150.088ZM125.945 151.7L123.982 147.15H125.119L126.835 151.18H126.166L127.908 147.15H128.954L126.985 151.7H125.945ZM130.283 151.7V148.008H128.827V147.15H132.792V148.008H131.336V151.7H130.283ZM133.455 151.752C133.281 151.752 133.132 151.694 133.006 151.577C132.885 151.455 132.824 151.301 132.824 151.115C132.824 150.929 132.885 150.779 133.006 150.667C133.132 150.55 133.281 150.491 133.455 150.491C133.632 150.491 133.782 150.55 133.903 150.667C134.024 150.779 134.085 150.929 134.085 151.115C134.085 151.301 134.024 151.455 133.903 151.577C133.782 151.694 133.632 151.752 133.455 151.752ZM136.685 151.7V147.15H137.738V150.842H140.019V151.7H136.685ZM141.125 151.7V148.008H139.669V147.15H143.634V148.008H142.178V151.7H141.125ZM144.2 151.7V147.15H146.267C146.761 147.15 147.197 147.245 147.574 147.436C147.951 147.622 148.245 147.885 148.458 148.223C148.67 148.561 148.776 148.961 148.776 149.425C148.776 149.884 148.67 150.285 148.458 150.628C148.245 150.966 147.951 151.23 147.574 151.421C147.197 151.607 146.761 151.7 146.267 151.7H144.2ZM145.253 150.836H146.215C146.518 150.836 146.781 150.779 147.002 150.667C147.227 150.55 147.4 150.385 147.522 150.173C147.647 149.96 147.71 149.711 147.71 149.425C147.71 149.135 147.647 148.886 147.522 148.678C147.4 148.465 147.227 148.303 147.002 148.19C146.781 148.073 146.518 148.015 146.215 148.015H145.253V150.836ZM149.755 151.752C149.582 151.752 149.432 151.694 149.307 151.577C149.185 151.455 149.125 151.301 149.125 151.115C149.125 150.929 149.185 150.779 149.307 150.667C149.432 150.55 149.582 150.491 149.755 150.491C149.933 150.491 150.082 150.55 150.204 150.667C150.325 150.779 150.386 150.929 150.386 151.115C150.386 151.301 150.325 151.455 150.204 151.577C150.082 151.694 149.933 151.752 149.755 151.752Z" fill="#171717"/>
<path d="M103.484 115.569H92.2843L77.4843 93.969H63.4843V115.569H53.4843V84.369H78.9523C82.7663 84.369 86.2363 82.053 87.5863 78.487C90.1803 71.635 85.1883 65.169 78.6863 65.169H43.4863V55.569H79.2863C80.7283 55.569 82.1343 55.727 83.4863 56.025C92.1823 57.945 98.6863 65.297 98.6863 74.569C98.6863 82.499 93.9263 89.319 87.1083 92.327L103.486 115.569H103.484ZM103.484 81.883L102.262 82.309L96.9423 91.457C96.6623 91.959 96.6863 92.577 97.0023 93.057L113.372 117.629C113.764 118.021 114.278 117.969 114.76 117.969H115.012C115.572 117.935 116.07 117.889 116.312 117.383L121.094 109.049C121.424 108.271 120.782 107.243 120.128 107.075C118.542 106.669 117.282 105.039 117.144 104.799M104.052 79.307L144.61 60.579C144.844 60.471 145.116 60.609 145.168 60.861L146.854 68.945C146.928 69.305 147.408 69.381 147.592 69.063L156.46 53.705C156.576 53.503 156.498 53.247 156.288 53.145L142.248 46.341C141.942 46.193 141.604 46.469 141.686 46.797L143.804 55.249C143.85 55.433 143.76 55.625 143.588 55.707L103.714 74.659C103.574 74.725 103.486 74.865 103.486 75.019V78.941C103.486 79.233 103.788 79.427 104.054 79.303L104.052 79.307ZM119.36 103.161C121.588 106.245 124.558 103.161 124.558 103.161L142.612 72.115C142.758 71.871 142.564 71.573 142.26 71.573H132.222C131.79 71.573 131.392 71.785 131.178 72.131L115.914 97.999C115.914 97.999 117.13 100.077 119.356 103.163L119.36 103.161Z" fill="#171717"/>
<path d="M143.122 142.695V128.093H137.363V124.7H153.045V128.093H147.286V142.695H143.122Z" fill="#171717"/>
<path d="M118.633 142.695V124.7H122.078L132.695 137.656H131.024V124.7H135.137V142.695H131.718L121.075 129.739H122.746V142.695H118.633Z" fill="#171717"/>
<path d="M96.5859 142.695L104.607 124.7H108.72L116.766 142.695H112.396L105.815 126.808H107.46L100.853 142.695H96.5859ZM100.596 138.839L101.702 135.677H110.956L112.087 138.839H100.596Z" fill="#171717"/>
<path d="M86.1483 142.695L78.3848 124.7H82.8835L89.6702 140.638H87.0223L93.9118 124.7H98.0507L90.2614 142.695H86.1483Z" fill="#171717"/>
<path d="M72.3906 142.695V124.7H76.5552V142.695H72.3906Z" fill="#171717"/>
<path d="M53.4863 142.695V124.7H61.2756C62.8865 124.7 64.2747 124.966 65.4401 125.497C66.6055 126.011 67.5053 126.757 68.1394 127.734C68.7735 128.71 69.0905 129.876 69.0905 131.23C69.0905 132.566 68.7735 133.723 68.1394 134.7C67.5053 135.66 66.6055 136.397 65.4401 136.911C64.2747 137.425 62.8865 137.682 61.2756 137.682H55.8L57.6509 135.857V142.695H53.4863ZM64.926 142.695L60.4272 136.165H64.8746L69.4247 142.695H64.926ZM57.6509 136.32L55.8 134.366H61.0442C62.3296 134.366 63.2893 134.092 63.9234 133.543C64.5575 132.978 64.8746 132.207 64.8746 131.23C64.8746 130.236 64.5575 129.464 63.9234 128.916C63.2893 128.368 62.3296 128.093 61.0442 128.093H55.8L57.6509 126.114V136.32Z" fill="#171717"/>
</svg>
