<svg width="114" height="108" viewBox="0 0 114 108" fill="none" xmlns="http://www.w3.org/2000/svg">
<path d="M10.6254 105.7V101.15H11.4964L13.4334 104.361H12.9719L14.8764 101.15H15.7409L15.7539 105.7H14.7659L14.7594 102.665H14.9414L13.4204 105.219H12.9459L11.3924 102.665H11.6134V105.7H10.6254ZM17.8019 102.983H19.9924V103.802H17.8019V102.983ZM17.8799 104.855H20.3564V105.7H16.8334V101.15H20.2719V101.995H17.8799V104.855ZM21.1943 105.7V101.15H23.2613C23.7553 101.15 24.1908 101.245 24.5678 101.436C24.9448 101.622 25.2395 101.885 25.4518 102.223C25.6641 102.561 25.7703 102.961 25.7703 103.425C25.7703 103.884 25.6641 104.285 25.4518 104.628C25.2395 104.966 24.9448 105.23 24.5678 105.421C24.1908 105.607 23.7553 105.7 23.2613 105.7H21.1943ZM22.2473 104.836H23.2093C23.5126 104.836 23.7748 104.779 23.9958 104.667C24.2211 104.55 24.3945 104.385 24.5158 104.173C24.6415 103.96 24.7043 103.711 24.7043 103.425C24.7043 103.135 24.6415 102.886 24.5158 102.678C24.3945 102.465 24.2211 102.303 23.9958 102.19C23.7748 102.073 23.5126 102.015 23.2093 102.015H22.2473V104.836ZM26.5644 105.7V101.15H27.6174V105.7H26.5644ZM28.0992 105.7L30.1272 101.15H31.1672L33.2017 105.7H32.0967L30.4327 101.683H30.8487L29.1782 105.7H28.0992ZM29.1132 104.725L29.3927 103.926H31.7327L32.0187 104.725H29.1132ZM37.0096 105.778C36.6456 105.778 36.2968 105.73 35.9631 105.635C35.6294 105.535 35.3608 105.408 35.1571 105.252L35.5146 104.459C35.7096 104.597 35.9393 104.712 36.2036 104.803C36.4723 104.89 36.7431 104.933 37.0161 104.933C37.2241 104.933 37.3909 104.914 37.5166 104.875C37.6466 104.831 37.7419 104.773 37.8026 104.699C37.8633 104.625 37.8936 104.541 37.8936 104.446C37.8936 104.324 37.8459 104.229 37.7506 104.16C37.6553 104.086 37.5296 104.027 37.3736 103.984C37.2176 103.936 37.0443 103.893 36.8536 103.854C36.6673 103.811 36.4788 103.759 36.2881 103.698C36.1018 103.637 35.9306 103.559 35.7746 103.464C35.6186 103.369 35.4908 103.243 35.3911 103.087C35.2958 102.931 35.2481 102.732 35.2481 102.489C35.2481 102.229 35.3174 101.993 35.4561 101.781C35.5991 101.564 35.8114 101.393 36.0931 101.267C36.3791 101.137 36.7366 101.072 37.1656 101.072C37.4516 101.072 37.7333 101.107 38.0106 101.176C38.2879 101.241 38.5328 101.341 38.7451 101.475L38.4201 102.275C38.2078 102.153 37.9954 102.064 37.7831 102.008C37.5708 101.947 37.3628 101.917 37.1591 101.917C36.9554 101.917 36.7886 101.941 36.6586 101.989C36.5286 102.036 36.4354 102.099 36.3791 102.177C36.3228 102.251 36.2946 102.337 36.2946 102.437C36.2946 102.554 36.3423 102.649 36.4376 102.723C36.5329 102.792 36.6586 102.849 36.8146 102.892C36.9706 102.935 37.1418 102.979 37.3281 103.022C37.5188 103.065 37.7073 103.115 37.8936 103.172C38.0843 103.228 38.2576 103.304 38.4136 103.399C38.5696 103.494 38.6953 103.62 38.7906 103.776C38.8903 103.932 38.9401 104.129 38.9401 104.368C38.9401 104.623 38.8686 104.857 38.7256 105.07C38.5826 105.282 38.3681 105.453 38.0821 105.583C37.8004 105.713 37.4429 105.778 37.0096 105.778ZM41.8696 105.778C41.51 105.778 41.1763 105.72 40.8686 105.603C40.5653 105.486 40.301 105.321 40.0756 105.109C39.8546 104.896 39.6813 104.647 39.5556 104.361C39.4343 104.075 39.3736 103.763 39.3736 103.425C39.3736 103.087 39.4343 102.775 39.5556 102.489C39.6813 102.203 39.8568 101.954 40.0821 101.742C40.3075 101.529 40.5718 101.365 40.8751 101.248C41.1785 101.131 41.5078 101.072 41.8631 101.072C42.2228 101.072 42.5521 101.131 42.8511 101.248C43.1545 101.365 43.4166 101.529 43.6376 101.742C43.863 101.954 44.0385 102.203 44.1641 102.489C44.2898 102.771 44.3526 103.083 44.3526 103.425C44.3526 103.763 44.2898 104.077 44.1641 104.368C44.0385 104.654 43.863 104.903 43.6376 105.115C43.4166 105.323 43.1545 105.486 42.8511 105.603C42.5521 105.72 42.225 105.778 41.8696 105.778ZM41.8631 104.881C42.0668 104.881 42.2531 104.846 42.4221 104.777C42.5955 104.708 42.7471 104.608 42.8771 104.478C43.0071 104.348 43.1068 104.194 43.1761 104.017C43.2498 103.839 43.2866 103.642 43.2866 103.425C43.2866 103.208 43.2498 103.011 43.1761 102.834C43.1068 102.656 43.0071 102.502 42.8771 102.372C42.7515 102.242 42.602 102.142 42.4286 102.073C42.2553 102.004 42.0668 101.969 41.8631 101.969C41.6595 101.969 41.471 102.004 41.2976 102.073C41.1286 102.142 40.9791 102.242 40.8491 102.372C40.7191 102.502 40.6173 102.656 40.5436 102.834C40.4743 103.011 40.4396 103.208 40.4396 103.425C40.4396 103.637 40.4743 103.835 40.5436 104.017C40.6173 104.194 40.717 104.348 40.8426 104.478C40.9726 104.608 41.1243 104.708 41.2976 104.777C41.471 104.846 41.6595 104.881 41.8631 104.881ZM45.144 105.7V101.15H46.197V104.842H48.4785V105.7H45.144ZM51.0376 105.778C50.3919 105.778 49.8871 105.598 49.5231 105.239C49.1591 104.879 48.9771 104.365 48.9771 103.698V101.15H50.0301V103.659C50.0301 104.092 50.1189 104.404 50.2966 104.595C50.4742 104.786 50.7234 104.881 51.0441 104.881C51.3647 104.881 51.6139 104.786 51.7916 104.595C51.9692 104.404 52.0581 104.092 52.0581 103.659V101.15H53.0981V103.698C53.0981 104.365 52.9161 104.879 52.5521 105.239C52.1881 105.598 51.6832 105.778 51.0376 105.778ZM55.0049 105.7V102.008H53.5489V101.15H57.5139V102.008H56.0579V105.7H55.0049ZM58.0805 105.7V101.15H59.1335V105.7H58.0805ZM62.4233 105.778C62.0637 105.778 61.73 105.72 61.4223 105.603C61.119 105.486 60.8547 105.321 60.6293 105.109C60.4083 104.896 60.235 104.647 60.1093 104.361C59.988 104.075 59.9273 103.763 59.9273 103.425C59.9273 103.087 59.988 102.775 60.1093 102.489C60.235 102.203 60.4105 101.954 60.6358 101.742C60.8612 101.529 61.1255 101.365 61.4288 101.248C61.7322 101.131 62.0615 101.072 62.4168 101.072C62.7765 101.072 63.1058 101.131 63.4048 101.248C63.7082 101.365 63.9703 101.529 64.1913 101.742C64.4167 101.954 64.5922 102.203 64.7178 102.489C64.8435 102.771 64.9063 103.083 64.9063 103.425C64.9063 103.763 64.8435 104.077 64.7178 104.368C64.5922 104.654 64.4167 104.903 64.1913 105.115C63.9703 105.323 63.7082 105.486 63.4048 105.603C63.1058 105.72 62.7787 105.778 62.4233 105.778ZM62.4168 104.881C62.6205 104.881 62.8068 104.846 62.9758 104.777C63.1492 104.708 63.3008 104.608 63.4308 104.478C63.5608 104.348 63.6605 104.194 63.7298 104.017C63.8035 103.839 63.8403 103.642 63.8403 103.425C63.8403 103.208 63.8035 103.011 63.7298 102.834C63.6605 102.656 63.5608 102.502 63.4308 102.372C63.3052 102.242 63.1557 102.142 62.9823 102.073C62.809 102.004 62.6205 101.969 62.4168 101.969C62.2132 101.969 62.0247 102.004 61.8513 102.073C61.6823 102.142 61.5328 102.242 61.4028 102.372C61.2728 102.502 61.171 102.656 61.0973 102.834C61.028 103.011 60.9933 103.208 60.9933 103.425C60.9933 103.637 61.028 103.835 61.0973 104.017C61.171 104.194 61.2707 104.348 61.3963 104.478C61.5263 104.608 61.678 104.708 61.8513 104.777C62.0247 104.846 62.2132 104.881 62.4168 104.881ZM65.6977 105.7V101.15H66.5687L69.2532 104.426H68.8307V101.15H69.8707V105.7H69.0062L66.3152 102.424H66.7377V105.7H65.6977ZM72.4422 105.778C72.0782 105.778 71.7294 105.73 71.3957 105.635C71.062 105.535 70.7934 105.408 70.5897 105.252L70.9472 104.459C71.1422 104.597 71.3719 104.712 71.6362 104.803C71.9049 104.89 72.1757 104.933 72.4487 104.933C72.6567 104.933 72.8235 104.914 72.9492 104.875C73.0792 104.831 73.1745 104.773 73.2352 104.699C73.2959 104.625 73.3262 104.541 73.3262 104.446C73.3262 104.324 73.2785 104.229 73.1832 104.16C73.0879 104.086 72.9622 104.027 72.8062 103.984C72.6502 103.936 72.4769 103.893 72.2862 103.854C72.0999 103.811 71.9114 103.759 71.7207 103.698C71.5344 103.637 71.3632 103.559 71.2072 103.464C71.0512 103.369 70.9234 103.243 70.8237 103.087C70.7284 102.931 70.6807 102.732 70.6807 102.489C70.6807 102.229 70.75 101.993 70.8887 101.781C71.0317 101.564 71.244 101.393 71.5257 101.267C71.8117 101.137 72.1692 101.072 72.5982 101.072C72.8842 101.072 73.1659 101.107 73.4432 101.176C73.7205 101.241 73.9654 101.341 74.1777 101.475L73.8527 102.275C73.6404 102.153 73.428 102.064 73.2157 102.008C73.0034 101.947 72.7954 101.917 72.5917 101.917C72.388 101.917 72.2212 101.941 72.0912 101.989C71.9612 102.036 71.868 102.099 71.8117 102.177C71.7554 102.251 71.7272 102.337 71.7272 102.437C71.7272 102.554 71.7749 102.649 71.8702 102.723C71.9655 102.792 72.0912 102.849 72.2472 102.892C72.4032 102.935 72.5744 102.979 72.7607 103.022C72.9514 103.065 73.1399 103.115 73.3262 103.172C73.5169 103.228 73.6902 103.304 73.8462 103.399C74.0022 103.494 74.1279 103.62 74.2232 103.776C74.3229 103.932 74.3727 104.129 74.3727 104.368C74.3727 104.623 74.3012 104.857 74.1582 105.07C74.0152 105.282 73.8007 105.453 73.5147 105.583C73.233 105.713 72.8755 105.778 72.4422 105.778ZM76.9331 105.7V101.15H78.9026C79.3099 101.15 79.6609 101.217 79.9556 101.352C80.2502 101.482 80.4777 101.67 80.6381 101.917C80.7984 102.164 80.8786 102.459 80.8786 102.801C80.8786 103.139 80.7984 103.432 80.6381 103.679C80.4777 103.926 80.2502 104.116 79.9556 104.251C79.6609 104.381 79.3099 104.446 78.9026 104.446H77.5181L77.9861 103.971V105.7H76.9331ZM77.9861 104.088L77.5181 103.588H78.8441C79.1691 103.588 79.4117 103.518 79.5721 103.38C79.7324 103.241 79.8126 103.048 79.8126 102.801C79.8126 102.55 79.7324 102.355 79.5721 102.216C79.4117 102.077 79.1691 102.008 78.8441 102.008H77.5181L77.9861 101.508V104.088ZM82.9445 105.7L80.9815 101.15H82.119L83.835 105.18H83.1655L84.9075 101.15H85.954L83.9845 105.7H82.9445ZM87.2828 105.7V102.008H85.8268V101.15H89.7918V102.008H88.3358V105.7H87.2828ZM90.4545 105.752C90.2812 105.752 90.1317 105.694 90.006 105.577C89.8847 105.455 89.824 105.301 89.824 105.115C89.824 104.929 89.8847 104.779 90.006 104.667C90.1317 104.55 90.2812 104.491 90.4545 104.491C90.6322 104.491 90.7817 104.55 90.903 104.667C91.0244 104.779 91.085 104.929 91.085 105.115C91.085 105.301 91.0244 105.455 90.903 105.577C90.7817 105.694 90.6322 105.752 90.4545 105.752ZM93.6845 105.7V101.15H94.7375V104.842H97.019V105.7H93.6845ZM98.1246 105.7V102.008H96.6686V101.15H100.634V102.008H99.1776V105.7H98.1246ZM101.2 105.7V101.15H103.267C103.761 101.15 104.197 101.245 104.574 101.436C104.951 101.622 105.245 101.885 105.458 102.223C105.67 102.561 105.776 102.961 105.776 103.425C105.776 103.884 105.67 104.285 105.458 104.628C105.245 104.966 104.951 105.23 104.574 105.421C104.197 105.607 103.761 105.7 103.267 105.7H101.2ZM102.253 104.836H103.215C103.518 104.836 103.781 104.779 104.002 104.667C104.227 104.55 104.4 104.385 104.522 104.173C104.647 103.96 104.71 103.711 104.71 103.425C104.71 103.135 104.647 102.886 104.522 102.678C104.4 102.465 104.227 102.303 104.002 102.19C103.781 102.073 103.518 102.015 103.215 102.015H102.253V104.836ZM106.755 105.752C106.582 105.752 106.432 105.694 106.307 105.577C106.185 105.455 106.125 105.301 106.125 105.115C106.125 104.929 106.185 104.779 106.307 104.667C106.432 104.55 106.582 104.491 106.755 104.491C106.933 104.491 107.082 104.55 107.204 104.667C107.325 104.779 107.386 104.929 107.386 105.115C107.386 105.301 107.325 105.455 107.204 105.577C107.082 105.694 106.933 105.752 106.755 105.752Z" fill="#171717"/>
<path d="M60.4843 69.569H49.2843L34.4843 47.969H20.4843V69.569H10.4843V38.369H35.9523C39.7663 38.369 43.2363 36.053 44.5863 32.487C47.1803 25.635 42.1883 19.169 35.6863 19.169H0.486328V9.56904H36.2863C37.7283 9.56904 39.1343 9.72704 40.4863 10.025C49.1823 11.945 55.6863 19.297 55.6863 28.569C55.6863 36.499 50.9263 43.319 44.1083 46.327L60.4863 69.569H60.4843ZM60.4843 35.883L59.2623 36.309L53.9423 45.457C53.6623 45.959 53.6863 46.577 54.0023 47.057L70.3723 71.629C70.7643 72.021 71.2783 71.969 71.7603 71.969H72.0123C72.5723 71.935 73.0703 71.889 73.3123 71.383L78.0943 63.049C78.4243 62.271 77.7823 61.243 77.1283 61.075C75.5423 60.669 74.2823 59.039 74.1443 58.799M61.0523 33.307L101.61 14.579C101.844 14.471 102.116 14.609 102.168 14.861L103.854 22.945C103.928 23.305 104.408 23.381 104.592 23.063L113.46 7.70504C113.576 7.50304 113.498 7.24704 113.288 7.14504L99.2483 0.341041C98.9423 0.193041 98.6043 0.469041 98.6863 0.797041L100.804 9.24904C100.85 9.43304 100.76 9.62504 100.588 9.70704L60.7143 28.659C60.5743 28.725 60.4863 28.865 60.4863 29.019V32.941C60.4863 33.233 60.7883 33.427 61.0543 33.303L61.0523 33.307ZM76.3603 57.161C78.5883 60.245 81.5583 57.161 81.5583 57.161L99.6123 26.115C99.7583 25.871 99.5643 25.573 99.2603 25.573H89.2223C88.7903 25.573 88.3923 25.785 88.1783 26.131L72.9143 51.999C72.9143 51.999 74.1303 54.077 76.3563 57.163L76.3603 57.161Z" fill="#171717"/>
<path d="M100.122 96.695V82.0934H94.3633V78.7001H110.045V82.0934H104.286V96.695H100.122Z" fill="#171717"/>
<path d="M75.6328 96.695V78.7001H79.0776L89.6946 91.6564H88.0236V78.7001H92.1368V96.695H88.7177L78.075 83.7387H79.7459V96.695H75.6328Z" fill="#171717"/>
<path d="M53.5859 96.695L61.6065 78.7001H65.7197L73.766 96.695H69.3958L62.8148 80.8081H64.46L57.8533 96.695H53.5859ZM57.5962 92.839L58.7016 89.677H67.9562L69.0873 92.839H57.5962Z" fill="#171717"/>
<path d="M43.1483 96.695L35.3848 78.7001H39.8835L46.6702 94.6385H44.0223L50.9118 78.7001H55.0507L47.2614 96.695H43.1483Z" fill="#171717"/>
<path d="M29.3906 96.695V78.7001H33.5552V96.695H29.3906Z" fill="#171717"/>
<path d="M10.4863 96.695V78.7001H18.2756C19.8865 78.7001 21.2747 78.9657 22.4401 79.497C23.6055 80.0111 24.5053 80.7566 25.1394 81.7335C25.7735 82.7104 26.0905 83.8758 26.0905 85.2297C26.0905 86.5664 25.7735 87.7233 25.1394 88.7001C24.5053 89.6599 23.6055 90.3968 22.4401 90.9109C21.2747 91.4251 19.8865 91.6821 18.2756 91.6821H12.8L14.6509 89.8569V96.695H10.4863ZM21.926 96.695L17.4272 90.1654H21.8746L26.4247 96.695H21.926ZM14.6509 90.3197L12.8 88.3659H18.0442C19.3296 88.3659 20.2893 88.0917 20.9234 87.5433C21.5575 86.9778 21.8746 86.2065 21.8746 85.2297C21.8746 84.2357 21.5575 83.4645 20.9234 82.916C20.2893 82.3676 19.3296 82.0934 18.0442 82.0934H12.8L14.6509 80.114V90.3197Z" fill="#171717"/>
</svg>
