<svg width="394" height="85" viewBox="0 0 394 85" fill="none" xmlns="http://www.w3.org/2000/svg">
<g clip-path="url(#clip0_646_871)">
<path d="M58.0656 82.113L40.53 56.5206H23.9424V82.113H12.094V45.1461H42.2694C46.7883 45.1461 50.8997 42.4021 52.4992 38.177C55.5727 30.0585 49.658 22.3973 41.9542 22.3973H0.248047V11.0229H42.6651C44.3736 11.0229 46.0395 11.2101 47.6414 11.5632C57.9447 13.8381 65.6509 22.549 65.6509 33.5348C65.6509 42.9305 60.0111 51.0111 51.9329 54.5751L71.3381 82.113H58.0656ZM71.3357 42.2007L69.8879 42.7054L63.5845 53.5443C63.2528 54.139 63.2812 54.8713 63.6556 55.44L83.0514 84.5537C83.5158 85.0182 84.1248 84.9566 84.6959 84.9566H84.9945C85.658 84.9163 86.2481 84.8618 86.5348 84.2623L92.2007 74.3879C92.5916 73.4661 91.831 72.2481 91.0561 72.049C89.177 71.568 87.6841 69.6367 87.5206 69.3523M72.0087 39.1485L120.063 16.9589C120.34 16.831 120.663 16.9945 120.724 17.2931L122.722 26.8713C122.81 27.2978 123.378 27.3879 123.596 27.0111L134.104 8.8144C134.241 8.57506 134.149 8.27175 133.9 8.15089L117.265 0.0892798C116.902 -0.0860756 116.502 0.240938 116.599 0.629564L119.108 10.6438C119.163 10.8618 119.056 11.0893 118.852 11.1864L71.6082 33.6414C71.4424 33.7196 71.3381 33.8855 71.3381 34.068V38.7149C71.3381 39.0608 71.6959 39.2907 72.0111 39.1438L72.0087 39.1485ZM90.1462 67.4116C92.786 71.0656 96.3049 67.4116 96.3049 67.4116L117.696 30.6272C117.869 30.3381 117.639 29.985 117.279 29.985H105.385C104.874 29.985 104.402 30.2362 104.149 30.6461L86.0632 61.2954C86.0632 61.2954 87.504 63.7575 90.1414 67.4139L90.1462 67.4116Z" fill="white"/>
<path d="M157.414 79.3677V70.8977H159.035L162.641 76.8751H161.782L165.327 70.8977H166.937L166.961 79.3677H165.122L165.109 73.717H165.448L162.617 78.4723H161.734L158.842 73.717H159.253V79.3677H157.414Z" fill="white"/>
<path d="M170.773 74.3099H174.851V75.8345H170.773V74.3099ZM170.918 77.7947H175.528V79.3677H168.97V70.8977H175.371V72.4707H170.918V77.7947Z" fill="white"/>
<path d="M177.088 79.3677V70.8977H180.936C181.856 70.8977 182.666 71.0752 183.368 71.4301C184.07 71.777 184.618 72.265 185.014 72.8942C185.409 73.5234 185.607 74.2696 185.607 75.1327C185.607 75.9878 185.409 76.7339 185.014 77.3712C184.618 78.0004 184.07 78.4925 183.368 78.8474C182.666 79.1943 181.856 79.3677 180.936 79.3677H177.088ZM179.048 77.7584H180.839C181.404 77.7584 181.892 77.6536 182.303 77.4438C182.723 77.226 183.045 76.9195 183.271 76.5242C183.505 76.1289 183.622 75.6651 183.622 75.1327C183.622 74.5923 183.505 74.1284 183.271 73.7412C183.045 73.346 182.723 73.0435 182.303 72.8337C181.892 72.6159 181.404 72.507 180.839 72.507H179.048V77.7584Z" fill="white"/>
<path d="M187.085 79.3677V70.8977H189.045V79.3677H187.085Z" fill="white"/>
<path d="M189.942 79.3677L193.717 70.8977H195.653L199.44 79.3677H197.383L194.286 71.8899H195.06L191.951 79.3677H189.942ZM191.83 77.5527L192.35 76.0644H196.706L197.238 77.5527H191.83Z" fill="white"/>
<path d="M206.529 79.5129C205.851 79.5129 205.202 79.4242 204.581 79.2467C203.96 79.0612 203.46 78.8232 203.08 78.5328L203.746 77.0566C204.109 77.3148 204.536 77.5285 205.029 77.6979C205.529 77.8592 206.033 77.9399 206.541 77.9399C206.928 77.9399 207.239 77.9036 207.473 77.831C207.715 77.7503 207.892 77.6415 208.005 77.5043C208.118 77.3672 208.175 77.2099 208.175 77.0324C208.175 76.8066 208.086 76.6291 207.908 76.5C207.731 76.3629 207.497 76.254 207.207 76.1733C206.916 76.0846 206.593 76.0039 206.239 75.9313C205.892 75.8507 205.541 75.7538 205.186 75.6409C204.839 75.528 204.52 75.3828 204.23 75.2053C203.94 75.0278 203.702 74.7939 203.516 74.5035C203.339 74.2131 203.25 73.8421 203.25 73.3903C203.25 72.9063 203.379 72.4667 203.637 72.0714C203.903 71.6681 204.299 71.3494 204.823 71.1155C205.355 70.8735 206.021 70.7525 206.819 70.7525C207.352 70.7525 207.876 70.817 208.392 70.9461C208.909 71.0671 209.364 71.2526 209.76 71.5027L209.155 72.991C208.759 72.7652 208.364 72.5998 207.969 72.4949C207.574 72.382 207.186 72.3255 206.807 72.3255C206.428 72.3255 206.118 72.3699 205.876 72.4586C205.634 72.5474 205.46 72.6643 205.355 72.8095C205.25 72.9467 205.198 73.108 205.198 73.2935C205.198 73.5113 205.287 73.6888 205.464 73.8259C205.642 73.955 205.876 74.0599 206.166 74.1405C206.456 74.2212 206.775 74.3018 207.122 74.3825C207.477 74.4632 207.828 74.556 208.175 74.6608C208.529 74.7657 208.852 74.9069 209.143 75.0843C209.433 75.2618 209.667 75.4957 209.844 75.7861C210.03 76.0765 210.123 76.4435 210.123 76.8872C210.123 77.3631 209.99 77.7987 209.723 78.194C209.457 78.5893 209.058 78.9079 208.525 79.1499C208.001 79.3919 207.336 79.5129 206.529 79.5129Z" fill="white"/>
<path d="M215.576 79.5129C214.907 79.5129 214.285 79.404 213.713 79.1862C213.148 78.9684 212.656 78.6619 212.236 78.2666C211.825 77.8714 211.502 77.4075 211.268 76.8751C211.043 76.3427 210.93 75.7619 210.93 75.1327C210.93 74.5035 211.043 73.9227 211.268 73.3903C211.502 72.8579 211.829 72.3941 212.249 71.9988C212.668 71.6036 213.16 71.297 213.725 71.0792C214.289 70.8614 214.903 70.7525 215.564 70.7525C216.234 70.7525 216.847 70.8614 217.403 71.0792C217.968 71.297 218.456 71.6036 218.867 71.9988C219.287 72.3941 219.613 72.8579 219.847 73.3903C220.081 73.9147 220.198 74.4955 220.198 75.1327C220.198 75.7619 220.081 76.3467 219.847 76.8872C219.613 77.4196 219.287 77.8835 218.867 78.2787C218.456 78.6659 217.968 78.9684 217.403 79.1862C216.847 79.404 216.238 79.5129 215.576 79.5129ZM215.564 77.8431C215.943 77.8431 216.29 77.7786 216.605 77.6495C216.927 77.5205 217.21 77.3349 217.452 77.0929C217.694 76.8509 217.879 76.5646 218.008 76.2338C218.145 75.9031 218.214 75.5361 218.214 75.1327C218.214 74.7294 218.145 74.3623 218.008 74.0316C217.879 73.7009 217.694 73.4145 217.452 73.1725C217.218 72.9305 216.939 72.745 216.617 72.6159C216.294 72.4868 215.943 72.4223 215.564 72.4223C215.185 72.4223 214.834 72.4868 214.511 72.6159C214.197 72.745 213.918 72.9305 213.676 73.1725C213.434 73.4145 213.245 73.7009 213.108 74.0316C212.979 74.3623 212.914 74.7294 212.914 75.1327C212.914 75.528 212.979 75.895 213.108 76.2338C213.245 76.5646 213.43 76.8509 213.664 77.0929C213.906 77.3349 214.189 77.5205 214.511 77.6495C214.834 77.7786 215.185 77.8431 215.564 77.8431Z" fill="white"/>
<path d="M221.671 79.3677V70.8977H223.632V77.7705H227.879V79.3677H221.671Z" fill="white"/>
<path d="M232.643 79.5129C231.441 79.5129 230.501 79.1782 229.823 78.5086C229.146 77.8391 228.807 76.8832 228.807 75.6409V70.8977H230.767V75.5683C230.767 76.375 230.932 76.9558 231.263 77.3107C231.594 77.6656 232.058 77.8431 232.655 77.8431C233.252 77.8431 233.715 77.6656 234.046 77.3107C234.377 76.9558 234.542 76.375 234.542 75.5683V70.8977H236.478V75.6409C236.478 76.8832 236.139 77.8391 235.462 78.5086C234.784 79.1782 233.844 79.5129 232.643 79.5129Z" fill="white"/>
<path d="M240.028 79.3677V72.4949H237.318V70.8977H244.699V72.4949H241.988V79.3677H240.028Z" fill="white"/>
<path d="M245.753 79.3677V70.8977H247.713V79.3677H245.753Z" fill="white"/>
<path d="M253.838 79.5129C253.168 79.5129 252.547 79.404 251.974 79.1862C251.41 78.9684 250.917 78.6619 250.498 78.2666C250.087 77.8714 249.764 77.4075 249.53 76.8751C249.304 76.3427 249.191 75.7619 249.191 75.1327C249.191 74.5035 249.304 73.9227 249.53 73.3903C249.764 72.8579 250.091 72.3941 250.51 71.9988C250.93 71.6036 251.422 71.297 251.986 71.0792C252.551 70.8614 253.164 70.7525 253.826 70.7525C254.495 70.7525 255.108 70.8614 255.665 71.0792C256.229 71.297 256.717 71.6036 257.129 71.9988C257.548 72.3941 257.875 72.8579 258.109 73.3903C258.343 73.9147 258.46 74.4955 258.46 75.1327C258.46 75.7619 258.343 76.3467 258.109 76.8872C257.875 77.4196 257.548 77.8835 257.129 78.2787C256.717 78.6659 256.229 78.9684 255.665 79.1862C255.108 79.404 254.499 79.5129 253.838 79.5129ZM253.826 77.8431C254.205 77.8431 254.552 77.7786 254.866 77.6495C255.189 77.5205 255.471 77.3349 255.713 77.0929C255.955 76.8509 256.141 76.5646 256.27 76.2338C256.407 75.9031 256.475 75.5361 256.475 75.1327C256.475 74.7294 256.407 74.3623 256.27 74.0316C256.141 73.7009 255.955 73.4145 255.713 73.1725C255.479 72.9305 255.201 72.745 254.878 72.6159C254.556 72.4868 254.205 72.4223 253.826 72.4223C253.446 72.4223 253.095 72.4868 252.773 72.6159C252.458 72.745 252.18 72.9305 251.938 73.1725C251.696 73.4145 251.506 73.7009 251.369 74.0316C251.24 74.3623 251.176 74.7294 251.176 75.1327C251.176 75.528 251.24 75.895 251.369 76.2338C251.506 76.5646 251.692 76.8509 251.926 77.0929C252.168 77.3349 252.45 77.5205 252.773 77.6495C253.095 77.7786 253.446 77.8431 253.826 77.8431Z" fill="white"/>
<path d="M259.933 79.3677V70.8977H261.554L266.552 76.9961H265.765V70.8977H267.701V79.3677H266.092L261.082 73.2693H261.869V79.3677H259.933Z" fill="white"/>
<path d="M272.488 79.5129C271.811 79.5129 271.161 79.4242 270.54 79.2467C269.919 79.0612 269.419 78.8232 269.04 78.5328L269.705 77.0566C270.068 77.3148 270.496 77.5285 270.988 77.6979C271.488 77.8592 271.992 77.9399 272.5 77.9399C272.887 77.9399 273.198 77.9036 273.432 77.831C273.674 77.7503 273.851 77.6415 273.964 77.5043C274.077 77.3672 274.134 77.2099 274.134 77.0324C274.134 76.8066 274.045 76.6291 273.868 76.5C273.69 76.3629 273.456 76.254 273.166 76.1733C272.875 76.0846 272.553 76.0039 272.198 75.9313C271.851 75.8507 271.5 75.7538 271.145 75.6409C270.798 75.528 270.48 75.3828 270.189 75.2053C269.899 75.0278 269.661 74.7939 269.475 74.5035C269.298 74.2131 269.209 73.8421 269.209 73.3903C269.209 72.9063 269.338 72.4667 269.596 72.0714C269.862 71.6681 270.258 71.3494 270.782 71.1155C271.314 70.8735 271.98 70.7525 272.779 70.7525C273.311 70.7525 273.835 70.817 274.352 70.9461C274.868 71.0671 275.324 71.2526 275.719 71.5027L275.114 72.991C274.719 72.7652 274.323 72.5998 273.928 72.4949C273.533 72.382 273.146 72.3255 272.766 72.3255C272.387 72.3255 272.077 72.3699 271.835 72.4586C271.593 72.5474 271.419 72.6643 271.314 72.8095C271.21 72.9467 271.157 73.108 271.157 73.2935C271.157 73.5113 271.246 73.6888 271.423 73.8259C271.601 73.955 271.835 74.0599 272.125 74.1405C272.416 74.2212 272.734 74.3018 273.081 74.3825C273.436 74.4632 273.787 74.556 274.134 74.6608C274.489 74.7657 274.811 74.9069 275.102 75.0843C275.392 75.2618 275.626 75.4957 275.804 75.7861C275.989 76.0765 276.082 76.4435 276.082 76.8872C276.082 77.3631 275.949 77.7987 275.683 78.194C275.416 78.5893 275.017 78.9079 274.485 79.1499C273.96 79.3919 273.295 79.5129 272.488 79.5129Z" fill="white"/>
<path d="M280.848 79.3677V70.8977H284.514C285.273 70.8977 285.926 71.0228 286.475 71.2728C287.023 71.5148 287.447 71.8657 287.745 72.3255C288.043 72.7853 288.193 73.3338 288.193 73.9711C288.193 74.6003 288.043 75.1448 287.745 75.6046C287.447 76.0644 287.023 76.4194 286.475 76.6694C285.926 76.9114 285.273 77.0324 284.514 77.0324H281.937L282.808 76.1491V79.3677H280.848ZM282.808 76.3669L281.937 75.4352H284.405C285.01 75.4352 285.462 75.3062 285.761 75.048C286.059 74.7899 286.208 74.4309 286.208 73.9711C286.208 73.5032 286.059 73.1403 285.761 72.8821C285.462 72.624 285.01 72.4949 284.405 72.4949H281.937L282.808 71.5632V76.3669Z" fill="white"/>
<path d="M289.592 79.3677V70.8977H293.258C294.017 70.8977 294.67 71.0228 295.219 71.2728C295.767 71.5148 296.191 71.8657 296.489 72.3255C296.788 72.7853 296.937 73.3338 296.937 73.9711C296.937 74.6003 296.788 75.1448 296.489 75.6046C296.191 76.0563 295.767 76.4032 295.219 76.6452C294.67 76.8872 294.017 77.0082 293.258 77.0082H290.681L291.552 76.1491V79.3677H289.592ZM294.977 79.3677L292.859 76.2943H294.952L297.094 79.3677H294.977ZM291.552 76.3669L290.681 75.4473H293.15C293.755 75.4473 294.206 75.3183 294.505 75.0601C294.803 74.7939 294.952 74.4309 294.952 73.9711C294.952 73.5032 294.803 73.1403 294.505 72.8821C294.206 72.624 293.755 72.4949 293.15 72.4949H290.681L291.552 71.5632V76.3669Z" fill="white"/>
<path d="M298.49 79.3677V70.8977H300.45V79.3677H298.49Z" fill="white"/>
<path d="M304.966 79.3677L301.312 70.8977H303.429L306.623 78.3997H305.377L308.62 70.8977H310.568L306.902 79.3677H304.966Z" fill="white"/>
<path d="M309.878 79.3677L313.654 70.8977H315.59L319.377 79.3677H317.32L314.222 71.8899H314.997L311.887 79.3677H309.878ZM311.766 77.5527L312.286 76.0644H316.642L317.175 77.5527H311.766Z" fill="white"/>
<path d="M321.585 79.3677V72.4949H318.874V70.8977H326.255V72.4949H323.545V79.3677H321.585Z" fill="white"/>
<path d="M329.113 74.3099H333.191V75.8345H329.113V74.3099ZM329.258 77.7947H333.868V79.3677H327.31V70.8977H333.711V72.4707H329.258V77.7947Z" fill="white"/>
<path d="M338.855 79.3677V70.8977H340.815V77.7705H345.062V79.3677H338.855Z" fill="white"/>
<path d="M346.157 79.3677V70.8977H348.117V79.3677H346.157Z" fill="white"/>
<path d="M350.128 79.3677V70.8977H351.749L355.355 76.8751H354.496L358.041 70.8977H359.65L359.674 79.3677H357.835L357.823 73.717H358.162L355.331 78.4723H354.447L351.555 73.717H351.967V79.3677H350.128Z" fill="white"/>
<path d="M361.684 79.3677V70.8977H363.644V79.3677H361.684Z" fill="white"/>
<path d="M367.409 79.3677V72.4949H364.698V70.8977H372.079V72.4949H369.369V79.3677H367.409Z" fill="white"/>
<path d="M374.937 74.3099H379.015V75.8345H374.937V74.3099ZM375.082 77.7947H379.692V79.3677H373.134V70.8977H379.535V72.4707H375.082V77.7947Z" fill="white"/>
<path d="M381.252 79.3677V70.8977H385.1C386.019 70.8977 386.83 71.0752 387.532 71.4301C388.234 71.777 388.782 72.265 389.178 72.8942C389.573 73.5234 389.77 74.2696 389.77 75.1327C389.77 75.9878 389.573 76.7339 389.178 77.3712C388.782 78.0004 388.234 78.4925 387.532 78.8474C386.83 79.1943 386.019 79.3677 385.1 79.3677H381.252ZM383.212 77.7584H385.003C385.568 77.7584 386.056 77.6536 386.467 77.4438C386.887 77.226 387.209 76.9195 387.435 76.5242C387.669 76.1289 387.786 75.6651 387.786 75.1327C387.786 74.5923 387.669 74.1284 387.435 73.7412C387.209 73.346 386.887 73.0435 386.467 72.8337C386.056 72.6159 385.568 72.507 385.003 72.507H383.212V77.7584Z" fill="white"/>
<path d="M370.237 59.5074V24.9064H356.592V16.8654H393.751V24.9064H380.106V59.5074H370.237Z" fill="white"/>
<path d="M312.207 59.5074V16.8654H320.37L345.529 47.5676H341.569V16.8654H351.316V59.5074H343.214L317.994 28.8051H321.954V59.5074H312.207Z" fill="white"/>
<path d="M259.963 59.5074L278.969 16.8654H288.716L307.783 59.5074H297.427L281.832 21.8606H285.731L270.075 59.5074H259.963ZM269.466 50.3698L272.085 42.877H294.015L296.696 50.3698H269.466Z" fill="white"/>
<path d="M235.23 59.5074L216.833 16.8654H227.493L243.576 54.634H237.301L253.627 16.8654H263.435L244.977 59.5074H235.23Z" fill="white"/>
<path d="M202.628 59.5074V16.8654H212.496V59.5074H202.628Z" fill="white"/>
<path d="M157.831 59.5074V16.8654H176.289C180.107 16.8654 183.396 17.4948 186.158 18.7538C188.919 19.9721 191.052 21.7387 192.554 24.0536C194.057 26.3684 194.808 29.13 194.808 32.3383C194.808 35.506 194.057 38.2473 192.554 40.5622C191.052 42.8364 188.919 44.5827 186.158 45.801C183.396 47.0194 180.107 47.6286 176.289 47.6286H163.314L167.7 43.3034V59.5074H157.831ZM184.939 59.5074L174.279 44.0344H184.818L195.6 59.5074H184.939ZM167.7 44.3999L163.314 39.7702H175.741C178.787 39.7702 181.061 39.1204 182.564 37.8209C184.066 36.4807 184.818 34.6532 184.818 32.3383C184.818 29.9829 184.066 28.1553 182.564 26.8558C181.061 25.5562 178.787 24.9064 175.741 24.9064H163.314L167.7 20.2158V44.3999Z" fill="white"/>
</g>
<defs>
<clipPath id="clip0_646_871">
<rect width="394" height="85" fill="white"/>
</clipPath>
</defs>
</svg>
