<svg width="200" height="200" viewBox="0 0 200 200" fill="none" xmlns="http://www.w3.org/2000/svg">
<rect width="200" height="200" fill="#F7F7F7"/>
<path d="M103.484 133.433H92.2843L77.4843 111.833H63.4843V133.433H53.4843V102.233H78.9523C82.7663 102.233 86.2363 99.9173 87.5863 96.3513C90.1803 89.4993 85.1883 83.0333 78.6863 83.0333H43.4863V73.4333H79.2863C80.7283 73.4333 82.1343 73.5913 83.4863 73.8893C92.1823 75.8093 98.6863 83.1613 98.6863 92.4333C98.6863 100.363 93.9263 107.183 87.1083 110.191L103.486 133.433H103.484ZM103.484 99.7473L102.262 100.173L96.9423 109.321C96.6623 109.823 96.6863 110.441 97.0023 110.921L113.372 135.493C113.764 135.885 114.278 135.833 114.76 135.833H115.012C115.572 135.799 116.07 135.753 116.312 135.247L121.094 126.913C121.424 126.135 120.782 125.107 120.128 124.939C118.542 124.533 117.282 122.903 117.144 122.663M104.052 97.1713L144.61 78.4433C144.844 78.3353 145.116 78.4733 145.168 78.7253L146.854 86.8093C146.928 87.1693 147.408 87.2453 147.592 86.9273L156.46 71.5693C156.576 71.3673 156.498 71.1113 156.288 71.0093L142.248 64.2053C141.942 64.0573 141.604 64.3333 141.686 64.6613L143.804 73.1133C143.85 73.2973 143.76 73.4893 143.588 73.5713L103.714 92.5233C103.574 92.5893 103.486 92.7293 103.486 92.8833V96.8053C103.486 97.0973 103.788 97.2913 104.054 97.1673L104.052 97.1713ZM119.36 121.025C121.588 124.109 124.558 121.025 124.558 121.025L142.612 89.9793C142.758 89.7353 142.564 89.4373 142.26 89.4373H132.222C131.79 89.4373 131.392 89.6493 131.178 89.9953L115.914 115.863C115.914 115.863 117.13 117.941 119.356 121.027L119.36 121.025Z" fill="#171717"/>
</svg>
