<svg width="540" height="200" viewBox="0 0 540 200" fill="none" xmlns="http://www.w3.org/2000/svg">
<rect width="540" height="200" fill="#171717"/>
<path d="M144.336 139.613H131.066L113.53 114.021H96.9424V139.613H85.094V102.646H115.269C119.788 102.646 123.9 99.9021 125.499 95.677C128.573 87.5585 122.658 79.8973 114.954 79.8973H73.248V68.5229H115.665C117.374 68.5229 119.04 68.7101 120.641 69.0632C130.945 71.3381 138.651 80.049 138.651 91.0348C138.651 100.431 133.011 108.511 124.933 112.075L144.338 139.613H144.336ZM144.336 99.7007L142.888 100.205L136.585 111.044C136.253 111.639 136.281 112.371 136.656 112.94L156.051 142.054C156.516 142.518 157.125 142.457 157.696 142.457H157.994C158.658 142.416 159.248 142.362 159.535 141.762L165.201 131.888C165.592 130.966 164.831 129.748 164.056 129.549C162.177 129.068 160.684 127.137 160.521 126.852M145.009 96.6485L193.063 74.4589C193.34 74.331 193.663 74.4945 193.724 74.7931L195.722 84.3713C195.81 84.7978 196.378 84.8879 196.596 84.5111L207.104 66.3144C207.241 66.0751 207.149 65.7717 206.9 65.6509L190.265 57.5893C189.902 57.4139 189.502 57.7409 189.599 58.1296L192.108 68.1438C192.163 68.3618 192.056 68.5893 191.852 68.6864L144.608 91.1414C144.442 91.2196 144.338 91.3855 144.338 91.568V96.2149C144.338 96.5608 144.696 96.7907 145.011 96.6438L145.009 96.6485ZM163.146 124.912C165.786 128.566 169.305 124.912 169.305 124.912L190.696 88.1272C190.869 87.8381 190.639 87.485 190.279 87.485H178.385C177.874 87.485 177.402 87.7362 177.149 88.1461L159.063 118.795C159.063 118.795 160.504 121.258 163.141 124.914L163.146 124.912Z" fill="white"/>
<path d="M230.589 138.868V128.915H235.111C236.191 128.915 237.144 129.124 237.968 129.541C238.793 129.948 239.438 130.522 239.902 131.261C240.367 132 240.599 132.877 240.599 133.891C240.599 134.896 240.367 135.773 239.902 136.522C239.438 137.261 238.793 137.839 237.968 138.256C237.144 138.664 236.191 138.868 235.111 138.868H230.589ZM232.893 136.977H234.997C235.66 136.977 236.234 136.853 236.717 136.607C237.21 136.351 237.589 135.991 237.855 135.526C238.13 135.062 238.267 134.517 238.267 133.891C238.267 133.256 238.13 132.711 237.855 132.256C237.589 131.792 237.21 131.436 236.717 131.19C236.234 130.934 235.66 130.806 234.997 130.806H232.893V136.977ZM244.454 132.925H249.246V134.716H244.454V132.925ZM244.625 137.019H250.042V138.868H242.336V128.915H249.857V130.763H244.625V137.019ZM255.145 139.038C254.349 139.038 253.586 138.934 252.856 138.726C252.126 138.508 251.538 138.228 251.093 137.887L251.875 136.152C252.301 136.455 252.804 136.707 253.382 136.906C253.969 137.095 254.562 137.19 255.159 137.19C255.614 137.19 255.979 137.147 256.254 137.062C256.538 136.967 256.747 136.839 256.879 136.678C257.012 136.517 257.078 136.332 257.078 136.124C257.078 135.858 256.974 135.65 256.766 135.498C256.557 135.337 256.282 135.209 255.941 135.114C255.6 135.01 255.221 134.915 254.804 134.83C254.396 134.735 253.984 134.621 253.567 134.489C253.159 134.356 252.785 134.185 252.443 133.977C252.102 133.768 251.823 133.493 251.604 133.152C251.396 132.811 251.292 132.375 251.292 131.844C251.292 131.275 251.443 130.759 251.747 130.294C252.059 129.82 252.524 129.446 253.14 129.171C253.766 128.887 254.548 128.744 255.486 128.744C256.112 128.744 256.728 128.82 257.334 128.972C257.941 129.114 258.477 129.332 258.941 129.626L258.23 131.375C257.766 131.109 257.301 130.915 256.837 130.792C256.372 130.659 255.917 130.593 255.472 130.593C255.026 130.593 254.661 130.645 254.377 130.749C254.093 130.853 253.889 130.991 253.766 131.162C253.642 131.323 253.581 131.512 253.581 131.73C253.581 131.986 253.685 132.195 253.894 132.356C254.102 132.508 254.377 132.631 254.718 132.726C255.059 132.82 255.434 132.915 255.841 133.01C256.259 133.105 256.671 133.214 257.078 133.337C257.495 133.46 257.875 133.626 258.216 133.835C258.557 134.043 258.832 134.318 259.041 134.659C259.259 135 259.368 135.432 259.368 135.953C259.368 136.512 259.211 137.024 258.898 137.489C258.586 137.953 258.116 138.327 257.491 138.612C256.875 138.896 256.093 139.038 255.145 139.038ZM260.941 138.868V128.915H263.245V138.868H260.941ZM270.412 139.038C269.626 139.038 268.901 138.915 268.237 138.669C267.583 138.413 267.01 138.053 266.517 137.588C266.033 137.124 265.654 136.579 265.379 135.953C265.114 135.327 264.981 134.64 264.981 133.891C264.981 133.143 265.114 132.455 265.379 131.83C265.654 131.204 266.038 130.659 266.531 130.195C267.024 129.73 267.602 129.375 268.265 129.128C268.929 128.872 269.659 128.744 270.455 128.744C271.337 128.744 272.128 128.891 272.829 129.185C273.54 129.479 274.137 129.906 274.621 130.465L273.142 131.83C272.782 131.451 272.389 131.171 271.962 130.991C271.536 130.801 271.071 130.707 270.569 130.707C270.085 130.707 269.645 130.782 269.246 130.934C268.848 131.086 268.502 131.304 268.209 131.588C267.924 131.872 267.701 132.209 267.54 132.598C267.389 132.986 267.313 133.417 267.313 133.891C267.313 134.356 267.389 134.782 267.54 135.171C267.701 135.56 267.924 135.901 268.209 136.195C268.502 136.479 268.844 136.697 269.232 136.849C269.63 137 270.066 137.076 270.54 137.076C270.995 137.076 271.436 137.005 271.863 136.863C272.299 136.711 272.72 136.46 273.128 136.109L274.436 137.773C273.896 138.181 273.265 138.493 272.545 138.711C271.834 138.929 271.123 139.038 270.412 139.038ZM272.332 137.474V133.735H274.436V137.773L272.332 137.474ZM276.576 138.868V128.915H278.481L284.353 136.081H283.429V128.915H285.704V138.868H283.813L277.926 131.702H278.851V138.868H276.576ZM295.213 139.038C294.483 139.038 293.834 138.92 293.265 138.683C292.696 138.446 292.246 138.124 291.914 137.716C291.583 137.308 291.417 136.839 291.417 136.308C291.417 135.816 291.526 135.375 291.744 134.986C291.962 134.588 292.308 134.218 292.782 133.877C293.256 133.526 293.857 133.185 294.587 132.853C295.118 132.607 295.535 132.389 295.838 132.199C296.142 132.01 296.355 131.83 296.478 131.659C296.602 131.479 296.663 131.299 296.663 131.119C296.663 130.872 296.578 130.673 296.407 130.522C296.246 130.37 296.004 130.294 295.682 130.294C295.341 130.294 295.075 130.38 294.886 130.55C294.696 130.721 294.602 130.939 294.602 131.204C294.602 131.346 294.63 131.489 294.687 131.631C294.744 131.763 294.853 131.92 295.014 132.1C295.175 132.271 295.402 132.493 295.696 132.768L300.943 137.631L299.734 139.038L293.948 133.664C293.616 133.361 293.35 133.076 293.151 132.811C292.952 132.545 292.805 132.285 292.711 132.029C292.625 131.773 292.583 131.508 292.583 131.233C292.583 130.749 292.711 130.323 292.966 129.953C293.222 129.583 293.583 129.299 294.047 129.1C294.511 128.891 295.057 128.787 295.682 128.787C296.26 128.787 296.758 128.882 297.175 129.072C297.602 129.252 297.933 129.512 298.17 129.853C298.417 130.195 298.54 130.602 298.54 131.076C298.54 131.493 298.436 131.877 298.227 132.228C298.019 132.569 297.692 132.891 297.246 133.195C296.81 133.498 296.237 133.806 295.526 134.119C295.042 134.337 294.658 134.55 294.374 134.759C294.099 134.958 293.9 135.162 293.777 135.37C293.654 135.579 293.592 135.811 293.592 136.067C293.592 136.304 293.663 136.517 293.805 136.707C293.957 136.896 294.166 137.043 294.431 137.147C294.696 137.252 295.009 137.304 295.369 137.304C295.948 137.304 296.478 137.171 296.962 136.906C297.445 136.631 297.853 136.228 298.184 135.697C298.526 135.157 298.767 134.503 298.91 133.735L300.687 134.29C300.488 135.256 300.132 136.095 299.62 136.806C299.109 137.517 298.478 138.067 297.729 138.455C296.981 138.844 296.142 139.038 295.213 139.038ZM306.456 138.868V128.915H308.361L312.598 135.939H311.588L315.754 128.915H317.645L317.674 138.868H315.513L315.498 132.228H315.896L312.569 137.816H311.532L308.133 132.228H308.617V138.868H306.456ZM318.727 138.868L323.163 128.915H325.438L329.888 138.868H327.471L323.831 130.081H324.741L321.087 138.868H318.727ZM320.945 136.735L321.556 134.986H326.675L327.3 136.735H320.945ZM330.921 138.868V128.915H335.229C336.12 128.915 336.887 129.062 337.532 129.356C338.177 129.64 338.674 130.053 339.025 130.593C339.376 131.133 339.551 131.778 339.551 132.526C339.551 133.266 339.376 133.906 339.025 134.446C338.674 134.977 338.177 135.384 337.532 135.669C336.887 135.953 336.12 136.095 335.229 136.095H332.2L333.224 135.086V138.868H330.921ZM337.248 138.868L334.76 135.256H337.219L339.736 138.868H337.248ZM333.224 135.342L332.2 134.261H335.101C335.812 134.261 336.342 134.109 336.693 133.806C337.044 133.493 337.219 133.067 337.219 132.526C337.219 131.977 337.044 131.55 336.693 131.247C336.342 130.944 335.812 130.792 335.101 130.792H332.2L333.224 129.697V135.342ZM343.438 136.593L343.31 133.934L348.073 128.915H350.632L346.338 133.536L345.058 134.901L343.438 136.593ZM341.376 138.868V128.915H343.665V138.868H341.376ZM348.186 138.868L344.646 134.531L346.153 132.896L350.874 138.868H348.186ZM354.019 132.925H358.811V134.716H354.019V132.925ZM354.19 137.019H359.607V138.868H351.901V128.915H359.422V130.763H354.19V137.019ZM363.501 138.868V130.792H360.316V128.915H368.989V130.792H365.804V138.868H363.501ZM370.228 138.868V128.915H372.532V138.868H370.228ZM374.894 138.868V128.915H376.799L382.671 136.081H381.747V128.915H384.022V138.868H382.131L376.244 131.702H377.169V138.868H374.894ZM391.182 139.038C390.395 139.038 389.67 138.915 389.007 138.669C388.353 138.413 387.779 138.053 387.286 137.588C386.803 137.124 386.424 136.579 386.149 135.953C385.884 135.327 385.751 134.64 385.751 133.891C385.751 133.143 385.884 132.455 386.149 131.83C386.424 131.204 386.808 130.659 387.301 130.195C387.794 129.73 388.372 129.375 389.035 129.128C389.699 128.872 390.429 128.744 391.225 128.744C392.106 128.744 392.898 128.891 393.599 129.185C394.31 129.479 394.907 129.906 395.391 130.465L393.912 131.83C393.552 131.451 393.158 131.171 392.732 130.991C392.305 130.801 391.841 130.707 391.339 130.707C390.855 130.707 390.414 130.782 390.016 130.934C389.618 131.086 389.272 131.304 388.978 131.588C388.694 131.872 388.471 132.209 388.31 132.598C388.158 132.986 388.083 133.417 388.083 133.891C388.083 134.356 388.158 134.782 388.31 135.171C388.471 135.56 388.694 135.901 388.978 136.195C389.272 136.479 389.613 136.697 390.002 136.849C390.4 137 390.836 137.076 391.31 137.076C391.765 137.076 392.206 137.005 392.632 136.863C393.068 136.711 393.49 136.46 393.898 136.109L395.206 137.773C394.666 138.181 394.035 138.493 393.315 138.711C392.604 138.929 391.893 139.038 391.182 139.038ZM393.102 137.474V133.735H395.206V137.773L393.102 137.474ZM400.064 138.868L404.5 128.915H406.775L411.225 138.868H408.808L405.168 130.081H406.078L402.424 138.868H400.064ZM402.282 136.735L402.893 134.986H408.012L408.637 136.735H402.282ZM416.925 139.038C416.138 139.038 415.413 138.915 414.749 138.669C414.095 138.413 413.522 138.053 413.029 137.588C412.545 137.124 412.166 136.579 411.891 135.953C411.626 135.327 411.493 134.64 411.493 133.891C411.493 133.143 411.626 132.455 411.891 131.83C412.166 131.204 412.55 130.659 413.043 130.195C413.536 129.73 414.114 129.375 414.778 129.128C415.441 128.872 416.171 128.744 416.967 128.744C417.849 128.744 418.64 128.891 419.342 129.185C420.052 129.479 420.65 129.906 421.133 130.465L419.654 131.83C419.294 131.451 418.901 131.171 418.474 130.991C418.048 130.801 417.583 130.707 417.081 130.707C416.598 130.707 416.157 130.782 415.759 130.934C415.361 131.086 415.015 131.304 414.721 131.588C414.436 131.872 414.214 132.209 414.052 132.598C413.901 132.986 413.825 133.417 413.825 133.891C413.825 134.356 413.901 134.782 414.052 135.171C414.214 135.56 414.436 135.901 414.721 136.195C415.015 136.479 415.356 136.697 415.744 136.849C416.143 137 416.579 137.076 417.052 137.076C417.507 137.076 417.948 137.005 418.375 136.863C418.811 136.711 419.233 136.46 419.64 136.109L420.948 137.773C420.408 138.181 419.778 138.493 419.057 138.711C418.346 138.929 417.635 139.038 416.925 139.038ZM418.844 137.474V133.735H420.948V137.773L418.844 137.474ZM425.206 132.925H429.998V134.716H425.206V132.925ZM425.377 137.019H430.794V138.868H423.088V128.915H430.609V130.763H425.377V137.019ZM432.627 138.868V128.915H434.532L440.404 136.081H439.48V128.915H441.755V138.868H439.864L433.977 131.702H434.902V138.868H432.627ZM448.872 139.038C448.105 139.038 447.389 138.915 446.725 138.669C446.071 138.413 445.503 138.053 445.019 137.588C444.536 137.124 444.157 136.579 443.882 135.953C443.616 135.327 443.484 134.64 443.484 133.891C443.484 133.143 443.616 132.455 443.882 131.83C444.157 131.204 444.536 130.659 445.019 130.195C445.512 129.73 446.086 129.375 446.74 129.128C447.394 128.872 448.109 128.744 448.887 128.744C449.749 128.744 450.526 128.896 451.218 129.199C451.92 129.493 452.507 129.929 452.981 130.508L451.503 131.872C451.161 131.484 450.782 131.195 450.365 131.005C449.948 130.806 449.493 130.707 449 130.707C448.536 130.707 448.109 130.782 447.721 130.934C447.332 131.086 446.996 131.304 446.711 131.588C446.427 131.872 446.204 132.209 446.043 132.598C445.891 132.986 445.816 133.417 445.816 133.891C445.816 134.365 445.891 134.797 446.043 135.185C446.204 135.574 446.427 135.91 446.711 136.195C446.996 136.479 447.332 136.697 447.721 136.849C448.109 137 448.536 137.076 449 137.076C449.493 137.076 449.948 136.981 450.365 136.792C450.782 136.593 451.161 136.294 451.503 135.896L452.981 137.261C452.507 137.839 451.92 138.28 451.218 138.583C450.526 138.887 449.744 139.038 448.872 139.038ZM456.927 138.868V134.801L457.454 136.195L453.074 128.915H455.52L458.875 134.503H457.468L460.837 128.915H463.098L458.719 136.195L459.231 134.801V138.868H456.927Z" fill="white"/>
<path d="M443.237 117.007V82.4064H429.592V74.3654H466.751V82.4064H453.106V117.007H443.237Z" fill="white"/>
<path d="M385.207 117.007V74.3654H393.37L418.529 105.068H414.569V74.3654H424.316V117.007H416.214L390.994 86.3051H394.954V117.007H385.207Z" fill="white"/>
<path d="M332.962 117.007L351.968 74.3654H361.715L380.782 117.007H370.426L354.831 79.3606H358.73L343.074 117.007H332.962ZM342.465 107.87L345.084 100.377H367.015L369.695 107.87H342.465Z" fill="white"/>
<path d="M308.23 117.007L289.833 74.3654H300.494L316.576 112.134H310.301L326.627 74.3654H336.435L317.977 117.007H308.23Z" fill="white"/>
<path d="M275.627 117.007V74.3654H285.496V117.007H275.627Z" fill="white"/>
<path d="M230.831 117.007V74.3654H249.289C253.106 74.3654 256.396 74.9948 259.158 76.2538C261.919 77.4721 264.051 79.2387 265.554 81.5536C267.057 83.8684 267.808 86.63 267.808 89.8383C267.808 93.006 267.057 95.7473 265.554 98.0622C264.051 100.336 261.919 102.083 259.158 103.301C256.396 104.519 253.106 105.129 249.289 105.129H236.314L240.7 100.803V117.007H230.831ZM257.939 117.007L247.279 101.534H257.817L268.6 117.007H257.939ZM240.7 101.9L236.314 97.2702H248.741C251.787 97.2702 254.061 96.6204 255.563 95.3209C257.066 93.9807 257.817 92.1532 257.817 89.8383C257.817 87.4829 257.066 85.6553 255.563 84.3558C254.061 83.0562 251.787 82.4064 248.741 82.4064H236.314L240.7 77.7158V101.9Z" fill="white"/>
</svg>
