<svg width="540" height="200" viewBox="0 0 540 200" fill="none" xmlns="http://www.w3.org/2000/svg">
<rect width="540" height="200" fill="#F7F7F7"/>
<path d="M144.336 139.613H131.066L113.53 114.021H96.9424V139.613H85.094V102.646H115.269C119.788 102.646 123.9 99.9021 125.499 95.677C128.573 87.5585 122.658 79.8973 114.954 79.8973H73.248V68.5229H115.665C117.374 68.5229 119.04 68.7101 120.641 69.0632C130.945 71.3381 138.651 80.049 138.651 91.0348C138.651 100.431 133.011 108.511 124.933 112.075L144.338 139.613H144.336ZM144.336 99.7007L142.888 100.205L136.585 111.044C136.253 111.639 136.281 112.371 136.656 112.94L156.051 142.054C156.516 142.518 157.125 142.457 157.696 142.457H157.994C158.658 142.416 159.248 142.362 159.535 141.762L165.201 131.888C165.592 130.966 164.831 129.748 164.056 129.549C162.177 129.068 160.684 127.137 160.521 126.852M145.009 96.6485L193.063 74.4589C193.34 74.331 193.663 74.4945 193.724 74.7931L195.722 84.3713C195.81 84.7978 196.378 84.8879 196.596 84.5111L207.104 66.3144C207.241 66.0751 207.149 65.7717 206.9 65.6509L190.265 57.5893C189.902 57.4139 189.502 57.7409 189.599 58.1296L192.108 68.1438C192.163 68.3618 192.056 68.5893 191.852 68.6864L144.608 91.1414C144.442 91.2196 144.338 91.3855 144.338 91.568V96.2149C144.338 96.5608 144.696 96.7907 145.011 96.6438L145.009 96.6485ZM163.146 124.912C165.786 128.566 169.305 124.912 169.305 124.912L190.696 88.1272C190.869 87.8381 190.639 87.485 190.279 87.485H178.385C177.874 87.485 177.402 87.7362 177.149 88.1461L159.063 118.795C159.063 118.795 160.504 121.258 163.141 124.914L163.146 124.912Z" fill="#171717"/>
<path d="M230.413 136.868V128.398H232.035L235.641 134.375H234.782L238.327 128.398H239.936L239.96 136.868H238.121L238.109 131.217H238.448L235.616 135.972H234.733L231.841 131.217H232.253V136.868H230.413ZM243.773 131.81H247.851V133.334H243.773V131.81ZM243.918 135.295H248.528V136.868H241.97V128.398H248.371V129.971H243.918V135.295ZM250.088 136.868V128.398H253.936C254.855 128.398 255.666 128.575 256.368 128.93C257.069 129.277 257.618 129.765 258.013 130.394C258.409 131.023 258.606 131.77 258.606 132.633C258.606 133.488 258.409 134.234 258.013 134.871C257.618 135.5 257.069 135.992 256.368 136.347C255.666 136.694 254.855 136.868 253.936 136.868H250.088ZM252.048 135.258H253.839C254.403 135.258 254.891 135.154 255.303 134.944C255.722 134.726 256.045 134.419 256.271 134.024C256.505 133.629 256.622 133.165 256.622 132.633C256.622 132.092 256.505 131.628 256.271 131.241C256.045 130.846 255.722 130.543 255.303 130.334C254.891 130.116 254.403 130.007 253.839 130.007H252.048V135.258ZM260.084 136.868V128.398H262.045V136.868H260.084ZM262.942 136.868L266.717 128.398H268.653L272.44 136.868H270.383L267.285 129.39H268.06L264.95 136.868H262.942ZM264.829 135.053L265.349 133.564H269.705L270.238 135.053H264.829ZM279.529 137.013C278.851 137.013 278.202 136.924 277.581 136.747C276.959 136.561 276.459 136.323 276.08 136.033L276.746 134.557C277.109 134.815 277.536 135.028 278.028 135.198C278.528 135.359 279.033 135.44 279.541 135.44C279.928 135.44 280.238 135.404 280.472 135.331C280.714 135.25 280.892 135.141 281.005 135.004C281.118 134.867 281.174 134.71 281.174 134.532C281.174 134.307 281.085 134.129 280.908 134C280.731 133.863 280.497 133.754 280.206 133.673C279.916 133.585 279.593 133.504 279.238 133.431C278.891 133.351 278.54 133.254 278.186 133.141C277.839 133.028 277.52 132.883 277.23 132.705C276.939 132.528 276.701 132.294 276.516 132.003C276.338 131.713 276.25 131.342 276.25 130.89C276.25 130.406 276.379 129.967 276.637 129.571C276.903 129.168 277.298 128.849 277.823 128.615C278.355 128.373 279.02 128.252 279.819 128.252C280.351 128.252 280.876 128.317 281.392 128.446C281.908 128.567 282.364 128.753 282.759 129.003L282.154 130.491C281.759 130.265 281.364 130.1 280.969 129.995C280.573 129.882 280.186 129.825 279.807 129.825C279.428 129.825 279.117 129.87 278.875 129.959C278.633 130.047 278.46 130.164 278.355 130.309C278.25 130.447 278.198 130.608 278.198 130.793C278.198 131.011 278.286 131.189 278.464 131.326C278.641 131.455 278.875 131.56 279.166 131.64C279.456 131.721 279.775 131.802 280.122 131.882C280.476 131.963 280.827 132.056 281.174 132.161C281.529 132.266 281.852 132.407 282.142 132.584C282.433 132.762 282.667 132.996 282.844 133.286C283.03 133.576 283.122 133.944 283.122 134.387C283.122 134.863 282.989 135.299 282.723 135.694C282.457 136.089 282.058 136.408 281.525 136.65C281.001 136.892 280.335 137.013 279.529 137.013ZM288.576 137.013C287.906 137.013 287.285 136.904 286.712 136.686C286.148 136.468 285.656 136.162 285.236 135.767C284.825 135.371 284.502 134.907 284.268 134.375C284.042 133.843 283.929 133.262 283.929 132.633C283.929 132.003 284.042 131.423 284.268 130.89C284.502 130.358 284.829 129.894 285.248 129.499C285.668 129.104 286.16 128.797 286.724 128.579C287.289 128.361 287.902 128.252 288.564 128.252C289.233 128.252 289.846 128.361 290.403 128.579C290.967 128.797 291.456 129.104 291.867 129.499C292.286 129.894 292.613 130.358 292.847 130.89C293.081 131.415 293.198 131.995 293.198 132.633C293.198 133.262 293.081 133.847 292.847 134.387C292.613 134.92 292.286 135.383 291.867 135.779C291.456 136.166 290.967 136.468 290.403 136.686C289.846 136.904 289.237 137.013 288.576 137.013ZM288.564 135.343C288.943 135.343 289.29 135.279 289.604 135.149C289.927 135.02 290.209 134.835 290.451 134.593C290.693 134.351 290.879 134.065 291.008 133.734C291.145 133.403 291.214 133.036 291.214 132.633C291.214 132.229 291.145 131.862 291.008 131.532C290.879 131.201 290.693 130.914 290.451 130.672C290.217 130.43 289.939 130.245 289.616 130.116C289.294 129.987 288.943 129.922 288.564 129.922C288.184 129.922 287.834 129.987 287.511 130.116C287.196 130.245 286.918 130.43 286.676 130.672C286.434 130.914 286.244 131.201 286.107 131.532C285.978 131.862 285.914 132.229 285.914 132.633C285.914 133.028 285.978 133.395 286.107 133.734C286.244 134.065 286.43 134.351 286.664 134.593C286.906 134.835 287.188 135.02 287.511 135.149C287.834 135.279 288.184 135.343 288.564 135.343ZM294.671 136.868V128.398H296.631V135.27H300.878V136.868H294.671ZM305.642 137.013C304.44 137.013 303.501 136.678 302.823 136.009C302.145 135.339 301.807 134.383 301.807 133.141V128.398H303.767V133.068C303.767 133.875 303.932 134.456 304.263 134.811C304.594 135.166 305.057 135.343 305.654 135.343C306.251 135.343 306.715 135.166 307.046 134.811C307.377 134.456 307.542 133.875 307.542 133.068V128.398H309.478V133.141C309.478 134.383 309.139 135.339 308.462 136.009C307.784 136.678 306.844 137.013 305.642 137.013ZM313.028 136.868V129.995H310.317V128.398H317.698V129.995H314.988V136.868H313.028ZM318.753 136.868V128.398H320.713V136.868H318.753ZM326.837 137.013C326.168 137.013 325.547 136.904 324.974 136.686C324.409 136.468 323.917 136.162 323.498 135.767C323.086 135.371 322.764 134.907 322.53 134.375C322.304 133.843 322.191 133.262 322.191 132.633C322.191 132.003 322.304 131.423 322.53 130.89C322.764 130.358 323.09 129.894 323.51 129.499C323.929 129.104 324.421 128.797 324.986 128.579C325.551 128.361 326.164 128.252 326.825 128.252C327.495 128.252 328.108 128.361 328.664 128.579C329.229 128.797 329.717 129.104 330.128 129.499C330.548 129.894 330.875 130.358 331.109 130.89C331.342 131.415 331.459 131.995 331.459 132.633C331.459 133.262 331.342 133.847 331.109 134.387C330.875 134.92 330.548 135.383 330.128 135.779C329.717 136.166 329.229 136.468 328.664 136.686C328.108 136.904 327.499 137.013 326.837 137.013ZM326.825 135.343C327.204 135.343 327.551 135.279 327.866 135.149C328.188 135.02 328.471 134.835 328.713 134.593C328.955 134.351 329.14 134.065 329.269 133.734C329.406 133.403 329.475 133.036 329.475 132.633C329.475 132.229 329.406 131.862 329.269 131.532C329.14 131.201 328.955 130.914 328.713 130.672C328.479 130.43 328.201 130.245 327.878 130.116C327.555 129.987 327.204 129.922 326.825 129.922C326.446 129.922 326.095 129.987 325.772 130.116C325.458 130.245 325.18 130.43 324.938 130.672C324.696 130.914 324.506 131.201 324.369 131.532C324.24 131.862 324.175 132.229 324.175 132.633C324.175 133.028 324.24 133.395 324.369 133.734C324.506 134.065 324.692 134.351 324.925 134.593C325.167 134.835 325.45 135.02 325.772 135.149C326.095 135.279 326.446 135.343 326.825 135.343ZM332.933 136.868V128.398H334.554L339.551 134.496H338.765V128.398H340.701V136.868H339.092L334.082 130.769H334.869V136.868H332.933ZM345.488 137.013C344.81 137.013 344.161 136.924 343.54 136.747C342.919 136.561 342.418 136.323 342.039 136.033L342.705 134.557C343.068 134.815 343.495 135.028 343.987 135.198C344.488 135.359 344.992 135.44 345.5 135.44C345.887 135.44 346.198 135.404 346.432 135.331C346.674 135.25 346.851 135.141 346.964 135.004C347.077 134.867 347.133 134.71 347.133 134.532C347.133 134.307 347.045 134.129 346.867 134C346.69 133.863 346.456 133.754 346.165 133.673C345.875 133.585 345.552 133.504 345.197 133.431C344.851 133.351 344.5 133.254 344.145 133.141C343.798 133.028 343.479 132.883 343.189 132.705C342.898 132.528 342.66 132.294 342.475 132.003C342.297 131.713 342.209 131.342 342.209 130.89C342.209 130.406 342.338 129.967 342.596 129.571C342.862 129.168 343.257 128.849 343.782 128.615C344.314 128.373 344.98 128.252 345.778 128.252C346.311 128.252 346.835 128.317 347.351 128.446C347.867 128.567 348.323 128.753 348.718 129.003L348.113 130.491C347.718 130.265 347.323 130.1 346.928 129.995C346.532 129.882 346.145 129.825 345.766 129.825C345.387 129.825 345.076 129.87 344.834 129.959C344.592 130.047 344.419 130.164 344.314 130.309C344.209 130.447 344.157 130.608 344.157 130.793C344.157 131.011 344.246 131.189 344.423 131.326C344.6 131.455 344.834 131.56 345.125 131.64C345.415 131.721 345.734 131.802 346.081 131.882C346.436 131.963 346.787 132.056 347.133 132.161C347.488 132.266 347.811 132.407 348.101 132.584C348.392 132.762 348.626 132.996 348.803 133.286C348.989 133.576 349.081 133.944 349.081 134.387C349.081 134.863 348.948 135.299 348.682 135.694C348.416 136.089 348.017 136.408 347.484 136.65C346.96 136.892 346.294 137.013 345.488 137.013ZM353.848 136.868V128.398H357.514C358.272 128.398 358.926 128.523 359.474 128.773C360.023 129.015 360.446 129.366 360.745 129.825C361.043 130.285 361.192 130.834 361.192 131.471C361.192 132.1 361.043 132.645 360.745 133.105C360.446 133.564 360.023 133.919 359.474 134.169C358.926 134.411 358.272 134.532 357.514 134.532H354.937L355.808 133.649V136.868H353.848ZM355.808 133.867L354.937 132.935H357.405C358.01 132.935 358.462 132.806 358.76 132.548C359.059 132.29 359.208 131.931 359.208 131.471C359.208 131.003 359.059 130.64 358.76 130.382C358.462 130.124 358.01 129.995 357.405 129.995H354.937L355.808 129.063V133.867ZM362.592 136.868V128.398H366.258C367.016 128.398 367.67 128.523 368.218 128.773C368.767 129.015 369.19 129.366 369.489 129.825C369.787 130.285 369.937 130.834 369.937 131.471C369.937 132.1 369.787 132.645 369.489 133.105C369.19 133.556 368.767 133.903 368.218 134.145C367.67 134.387 367.016 134.508 366.258 134.508H363.681L364.552 133.649V136.868H362.592ZM367.976 136.868L365.859 133.794H367.952L370.094 136.868H367.976ZM364.552 133.867L363.681 132.947H366.149C366.754 132.947 367.206 132.818 367.504 132.56C367.803 132.294 367.952 131.931 367.952 131.471C367.952 131.003 367.803 130.64 367.504 130.382C367.206 130.124 366.754 129.995 366.149 129.995H363.681L364.552 129.063V133.867ZM371.49 136.868V128.398H373.45V136.868H371.49ZM377.965 136.868L374.311 128.398H376.429L379.623 135.9H378.377L381.62 128.398H383.568L379.901 136.868H377.965ZM382.878 136.868L386.653 128.398H388.589L392.377 136.868H390.32L387.222 129.39H387.996L384.887 136.868H382.878ZM384.766 135.053L385.286 133.564H389.642L390.174 135.053H384.766ZM394.584 136.868V129.995H391.874V128.398H399.255V129.995H396.545V136.868H394.584ZM402.113 131.81H406.19V133.334H402.113V131.81ZM402.258 135.295H406.868V136.868H400.31V128.398H406.711V129.971H402.258V135.295ZM411.854 136.868V128.398H413.815V135.27H418.062V136.868H411.854ZM419.157 136.868V128.398H421.117V136.868H419.157ZM423.127 136.868V128.398H424.749L428.354 134.375H427.495L431.041 128.398H432.65L432.674 136.868H430.835L430.823 131.217H431.162L428.33 135.972H427.447L424.555 131.217H424.966V136.868H423.127ZM434.684 136.868V128.398H436.644V136.868H434.684ZM440.409 136.868V129.995H437.698V128.398H445.079V129.995H442.369V136.868H440.409ZM447.937 131.81H452.014V133.334H447.937V131.81ZM448.082 135.295H452.692V136.868H446.134V128.398H452.535V129.971H448.082V135.295ZM454.252 136.868V128.398H458.099C459.019 128.398 459.83 128.575 460.532 128.93C461.233 129.277 461.782 129.765 462.177 130.394C462.572 131.023 462.77 131.77 462.77 132.633C462.77 133.488 462.572 134.234 462.177 134.871C461.782 135.5 461.233 135.992 460.532 136.347C459.83 136.694 459.019 136.868 458.099 136.868H454.252ZM456.212 135.258H458.003C458.567 135.258 459.055 135.154 459.467 134.944C459.886 134.726 460.209 134.419 460.435 134.024C460.669 133.629 460.786 133.165 460.786 132.633C460.786 132.092 460.669 131.628 460.435 131.241C460.209 130.846 459.886 130.543 459.467 130.334C459.055 130.116 458.567 130.007 458.003 130.007H456.212V135.258Z" fill="#171717"/>
<path d="M443.237 117.007V82.4064H429.592V74.3653H466.751V82.4064H453.106V117.007H443.237Z" fill="#171717"/>
<path d="M385.207 117.007V74.3653H393.37L418.529 105.068H414.569V74.3653H424.316V117.007H416.214L390.994 86.3051H394.954V117.007H385.207Z" fill="#171717"/>
<path d="M332.962 117.007L351.968 74.3653H361.715L380.782 117.007H370.426L354.831 79.3605H358.73L343.074 117.007H332.962ZM342.465 107.87L345.084 100.377H367.015L369.695 107.87H342.465Z" fill="#171717"/>
<path d="M308.23 117.007L289.833 74.3653H300.494L316.576 112.134H310.301L326.627 74.3653H336.435L317.977 117.007H308.23Z" fill="#171717"/>
<path d="M275.627 117.007V74.3654H285.496V117.007H275.627Z" fill="#171717"/>
<path d="M230.831 117.007V74.3653H249.289C253.106 74.3653 256.396 74.9948 259.158 76.2537C261.919 77.4721 264.051 79.2387 265.554 81.5535C267.057 83.8684 267.808 86.63 267.808 89.8383C267.808 93.006 267.057 95.7472 265.554 98.0621C264.051 100.336 261.919 102.083 259.158 103.301C256.396 104.519 253.106 105.128 249.289 105.128H236.314L240.7 100.803V117.007H230.831ZM257.939 117.007L247.279 101.534H257.817L268.6 117.007H257.939ZM240.7 101.9L236.314 97.2702H248.741C251.787 97.2702 254.061 96.6204 255.563 95.3208C257.066 93.9806 257.817 92.1531 257.817 89.8383C257.817 87.4828 257.066 85.6553 255.563 84.3557C254.061 83.0562 251.787 82.4064 248.741 82.4064H236.314L240.7 77.7157V101.9Z" fill="#171717"/>
</svg>
