<svg width="394" height="85" viewBox="0 0 394 85" fill="none" xmlns="http://www.w3.org/2000/svg">
<g clip-path="url(#clip0_646_737)">
<path d="M58.0656 82.113L40.53 56.5206H23.9424V82.113H12.094V45.1461H42.2694C46.7883 45.1461 50.8997 42.4021 52.4992 38.177C55.5727 30.0585 49.658 22.3973 41.9542 22.3973H0.248047V11.0229H42.6651C44.3736 11.0229 46.0395 11.2101 47.6414 11.5632C57.9447 13.8381 65.6509 22.549 65.6509 33.5348C65.6509 42.9305 60.0111 51.0111 51.9329 54.5751L71.3381 82.113H58.0656ZM71.3357 42.2007L69.8879 42.7054L63.5845 53.5443C63.2528 54.139 63.2812 54.8713 63.6556 55.44L83.0514 84.5537C83.5158 85.0182 84.1248 84.9566 84.6959 84.9566H84.9945C85.658 84.9163 86.2481 84.8618 86.5348 84.2623L92.2007 74.3879C92.5916 73.4661 91.831 72.2481 91.0561 72.049C89.177 71.568 87.6841 69.6367 87.5206 69.3523M72.0087 39.1485L120.063 16.9589C120.34 16.831 120.663 16.9945 120.724 17.2931L122.722 26.8713C122.81 27.2978 123.378 27.3879 123.596 27.0111L134.104 8.8144C134.241 8.57506 134.149 8.27175 133.9 8.15089L117.265 0.0892798C116.902 -0.0860756 116.502 0.240938 116.599 0.629564L119.108 10.6438C119.163 10.8618 119.056 11.0893 118.852 11.1864L71.6082 33.6414C71.4424 33.7196 71.3381 33.8855 71.3381 34.068V38.7149C71.3381 39.0608 71.6959 39.2907 72.0111 39.1438L72.0087 39.1485ZM90.1462 67.4116C92.786 71.0656 96.3049 67.4116 96.3049 67.4116L117.696 30.6272C117.869 30.3381 117.639 29.985 117.279 29.985H105.385C104.874 29.985 104.402 30.2362 104.149 30.6461L86.0632 61.2954C86.0632 61.2954 87.504 63.7575 90.1414 67.4139L90.1462 67.4116Z" fill="#171717"/>
<path d="M157.59 81.3677V71.4151H162.111C163.192 71.4151 164.144 71.6236 164.969 72.0407C165.793 72.4483 166.438 73.0217 166.902 73.7611C167.367 74.5004 167.599 75.3772 167.599 76.3914C167.599 77.3961 167.367 78.2729 166.902 79.0217C166.438 79.761 165.793 80.3392 164.969 80.7563C164.144 81.1639 163.192 81.3677 162.111 81.3677H157.59ZM159.893 79.4767H161.997C162.661 79.4767 163.234 79.3535 163.718 79.107C164.21 78.8511 164.59 78.4909 164.855 78.0265C165.13 77.562 165.267 77.017 165.267 76.3914C165.267 75.7563 165.13 75.2113 164.855 74.7563C164.59 74.2919 164.21 73.9364 163.718 73.69C163.234 73.434 162.661 73.3061 161.997 73.3061H159.893V79.4767Z" fill="#171717"/>
<path d="M171.455 75.4246H176.246V77.216H171.455V75.4246ZM171.625 79.5193H177.042V81.3677H169.336V71.4151H176.857V73.2634H171.625V79.5193Z" fill="#171717"/>
<path d="M182.145 81.5383C181.349 81.5383 180.586 81.434 179.856 81.2255C179.126 81.0075 178.538 80.7279 178.093 80.3866L178.875 78.652C179.302 78.9554 179.804 79.2065 180.382 79.4056C180.97 79.5952 181.562 79.69 182.159 79.69C182.614 79.69 182.979 79.6473 183.254 79.562C183.538 79.4672 183.747 79.3393 183.88 79.1781C184.012 79.017 184.079 78.8321 184.079 78.6236C184.079 78.3582 183.975 78.1497 183.766 77.998C183.557 77.8369 183.283 77.7089 182.941 77.6141C182.6 77.5099 182.221 77.4151 181.804 77.3298C181.396 77.235 180.984 77.1212 180.567 76.9885C180.159 76.8558 179.785 76.6852 179.444 76.4767C179.102 76.2682 178.823 75.9933 178.605 75.652C178.396 75.3108 178.292 74.8748 178.292 74.344C178.292 73.7753 178.444 73.2587 178.747 72.7942C179.06 72.3203 179.524 71.9459 180.14 71.671C180.766 71.3866 181.548 71.2445 182.486 71.2445C183.112 71.2445 183.728 71.3203 184.335 71.472C184.941 71.6141 185.477 71.8321 185.941 72.126L185.23 73.8748C184.766 73.6094 184.302 73.4151 183.837 73.2919C183.373 73.1592 182.918 73.0928 182.472 73.0928C182.027 73.0928 181.662 73.1449 181.377 73.2492C181.093 73.3535 180.889 73.4909 180.766 73.6615C180.643 73.8227 180.581 74.0122 180.581 74.2302C180.581 74.4862 180.685 74.6947 180.894 74.8558C181.102 75.0075 181.377 75.1307 181.719 75.2255C182.06 75.3203 182.434 75.4151 182.842 75.5099C183.259 75.6047 183.671 75.7137 184.079 75.8369C184.496 75.9601 184.875 76.126 185.216 76.3345C185.557 76.543 185.832 76.8179 186.041 77.1592C186.259 77.5004 186.368 77.9317 186.368 78.453C186.368 79.0122 186.211 79.5241 185.899 79.9885C185.586 80.453 185.117 80.8274 184.491 81.1118C183.875 81.3961 183.093 81.5383 182.145 81.5383Z" fill="#171717"/>
<path d="M187.942 81.3677V71.4151H190.245V81.3677H187.942Z" fill="#171717"/>
<path d="M197.413 81.5383C196.626 81.5383 195.901 81.4151 195.237 81.1686C194.583 80.9127 194.01 80.5525 193.517 80.0881C193.034 79.6236 192.654 79.0786 192.38 78.453C192.114 77.8274 191.981 77.1402 191.981 76.3914C191.981 75.6426 192.114 74.9554 192.38 74.3298C192.654 73.7042 193.038 73.1592 193.531 72.6947C194.024 72.2302 194.602 71.8748 195.266 71.6283C195.929 71.3724 196.659 71.2445 197.455 71.2445C198.337 71.2445 199.128 71.3914 199.83 71.6852C200.541 71.9791 201.138 72.4056 201.621 72.9648L200.143 74.3298C199.782 73.9506 199.389 73.671 198.962 73.4909C198.536 73.3013 198.071 73.2066 197.569 73.2066C197.086 73.2066 196.645 73.2824 196.247 73.434C195.849 73.5857 195.503 73.8037 195.209 74.0881C194.925 74.3724 194.702 74.7089 194.541 75.0975C194.389 75.4862 194.313 75.9174 194.313 76.3914C194.313 76.8558 194.389 77.2824 194.541 77.671C194.702 78.0596 194.925 78.4009 195.209 78.6947C195.503 78.9791 195.844 79.1971 196.233 79.3487C196.631 79.5004 197.067 79.5762 197.541 79.5762C197.996 79.5762 198.436 79.5051 198.863 79.3629C199.299 79.2113 199.721 78.9601 200.128 78.6094L201.436 80.2729C200.896 80.6805 200.266 80.9933 199.545 81.2113C198.835 81.4293 198.124 81.5383 197.413 81.5383ZM199.332 79.9743V76.235H201.436V80.2729L199.332 79.9743Z" fill="#171717"/>
<path d="M203.576 81.3677V71.4151H205.481L211.353 78.581H210.429V71.4151H212.704V81.3677H210.813L204.927 74.2018H205.851V81.3677H203.576Z" fill="#171717"/>
<path d="M222.213 81.5383C221.483 81.5383 220.834 81.4198 220.265 81.1829C219.697 80.9459 219.246 80.6236 218.915 80.216C218.583 79.8084 218.417 79.3393 218.417 78.8084C218.417 78.3156 218.526 77.8748 218.744 77.4862C218.962 77.0881 219.308 76.7184 219.782 76.3772C220.256 76.0265 220.858 75.6852 221.588 75.3535C222.118 75.107 222.536 74.889 222.839 74.6994C223.142 74.5099 223.355 74.3298 223.479 74.1592C223.602 73.9791 223.663 73.799 223.663 73.6189C223.663 73.3724 223.578 73.1734 223.408 73.0217C223.246 72.8701 223.005 72.7942 222.682 72.7942C222.341 72.7942 222.076 72.8795 221.886 73.0501C221.697 73.2208 221.602 73.4388 221.602 73.7042C221.602 73.8464 221.63 73.9885 221.687 74.1307C221.744 74.2634 221.853 74.4198 222.014 74.5999C222.175 74.7705 222.403 74.9933 222.697 75.2682L227.943 80.1307L226.735 81.5383L220.948 76.1639C220.616 75.8606 220.351 75.5762 220.152 75.3108C219.953 75.0454 219.806 74.7847 219.711 74.5288C219.626 74.2729 219.583 74.0075 219.583 73.7326C219.583 73.2492 219.711 72.8227 219.967 72.453C220.223 72.0833 220.583 71.799 221.047 71.5999C221.512 71.3914 222.057 71.2871 222.682 71.2871C223.261 71.2871 223.758 71.3819 224.175 71.5715C224.602 71.7516 224.934 72.0122 225.171 72.3535C225.417 72.6947 225.54 73.1023 225.54 73.5762C225.54 73.9933 225.436 74.3772 225.227 74.7279C225.019 75.0691 224.692 75.3914 224.246 75.6947C223.81 75.998 223.237 76.3061 222.526 76.6189C222.043 76.8369 221.659 77.0502 221.374 77.2587C221.1 77.4577 220.9 77.6615 220.777 77.8701C220.654 78.0786 220.592 78.3108 220.592 78.5667C220.592 78.8037 220.663 79.017 220.806 79.2066C220.957 79.3961 221.166 79.543 221.431 79.6473C221.697 79.7516 222.009 79.8037 222.37 79.8037C222.948 79.8037 223.479 79.671 223.962 79.4056C224.445 79.1307 224.853 78.7279 225.185 78.1971C225.526 77.6568 225.768 77.0028 225.91 76.235L227.687 76.7895C227.488 77.7563 227.133 78.5952 226.621 79.3061C226.109 80.017 225.479 80.5667 224.73 80.9554C223.981 81.344 223.142 81.5383 222.213 81.5383Z" fill="#171717"/>
<path d="M233.456 81.3677V71.4151H235.361L239.598 78.4388H238.589L242.755 71.4151H244.646L244.674 81.3677H242.513L242.499 74.7279H242.897L239.57 80.3156H238.532L235.134 74.7279H235.617V81.3677H233.456Z" fill="#171717"/>
<path d="M245.727 81.3677L250.163 71.4151H252.438L256.888 81.3677H254.471L250.832 72.581H251.742L248.087 81.3677H245.727ZM247.945 79.235L248.557 77.4862H253.675L254.301 79.235H247.945Z" fill="#171717"/>
<path d="M257.921 81.3677V71.4151H262.229C263.12 71.4151 263.888 71.562 264.532 71.8558C265.177 72.1402 265.675 72.5525 266.025 73.0928C266.376 73.6331 266.551 74.2776 266.551 75.0265C266.551 75.7658 266.376 76.4056 266.025 76.9459C265.675 77.4767 265.177 77.8843 264.532 78.1686C263.888 78.453 263.12 78.5952 262.229 78.5952H259.201L260.224 77.5857V81.3677H257.921ZM264.248 81.3677L261.76 77.7563H264.22L266.736 81.3677H264.248ZM260.224 77.8416L259.201 76.7611H262.101C262.812 76.7611 263.343 76.6094 263.694 76.3061C264.044 75.9933 264.22 75.5667 264.22 75.0265C264.22 74.4767 264.044 74.0502 263.694 73.7468C263.343 73.4435 262.812 73.2919 262.101 73.2919H259.201L260.224 72.1971V77.8416Z" fill="#171717"/>
<path d="M270.438 79.0928L270.31 76.434L275.073 71.4151H277.632L273.338 76.0359L272.059 77.4009L270.438 79.0928ZM268.376 81.3677V71.4151H270.665V81.3677H268.376ZM275.187 81.3677L271.646 77.0312L273.154 75.3961L277.874 81.3677H275.187Z" fill="#171717"/>
<path d="M281.019 75.4246H285.811V77.216H281.019V75.4246ZM281.19 79.5193H286.607V81.3677H278.901V71.4151H286.422V73.2634H281.19V79.5193Z" fill="#171717"/>
<path d="M290.501 81.3677V73.2919H287.317V71.4151H295.99V73.2919H292.805V81.3677H290.501Z" fill="#171717"/>
<path d="M297.229 81.3677V71.4151H299.532V81.3677H297.229Z" fill="#171717"/>
<path d="M301.894 81.3677V71.4151H303.799L309.671 78.581H308.747V71.4151H311.022V81.3677H309.131L303.245 74.2018H304.169V81.3677H301.894Z" fill="#171717"/>
<path d="M318.182 81.5383C317.396 81.5383 316.671 81.4151 316.007 81.1686C315.353 80.9127 314.78 80.5525 314.287 80.0881C313.803 79.6236 313.424 79.0786 313.149 78.453C312.884 77.8274 312.751 77.1402 312.751 76.3914C312.751 75.6426 312.884 74.9554 313.149 74.3298C313.424 73.7042 313.808 73.1592 314.301 72.6947C314.794 72.2302 315.372 71.8748 316.036 71.6283C316.699 71.3724 317.429 71.2445 318.225 71.2445C319.107 71.2445 319.898 71.3914 320.6 71.6852C321.31 71.9791 321.908 72.4056 322.391 72.9648L320.912 74.3298C320.552 73.9506 320.159 73.671 319.732 73.4909C319.306 73.3013 318.841 73.2066 318.339 73.2066C317.855 73.2066 317.415 73.2824 317.017 73.434C316.618 73.5857 316.273 73.8037 315.979 74.0881C315.694 74.3724 315.472 74.7089 315.31 75.0975C315.159 75.4862 315.083 75.9174 315.083 76.3914C315.083 76.8558 315.159 77.2824 315.31 77.671C315.472 78.0596 315.694 78.4009 315.979 78.6947C316.273 78.9791 316.614 79.1971 317.002 79.3487C317.4 79.5004 317.837 79.5762 318.31 79.5762C318.765 79.5762 319.206 79.5051 319.633 79.3629C320.069 79.2113 320.491 78.9601 320.898 78.6094L322.206 80.2729C321.666 80.6805 321.036 80.9933 320.315 81.2113C319.604 81.4293 318.893 81.5383 318.182 81.5383ZM320.102 79.9743V76.235H322.206V80.2729L320.102 79.9743Z" fill="#171717"/>
<path d="M327.064 81.3677L331.5 71.4151H333.775L338.225 81.3677H335.808L332.169 72.581H333.079L329.424 81.3677H327.064ZM329.282 79.235L329.894 77.4862H335.012L335.638 79.235H329.282Z" fill="#171717"/>
<path d="M343.925 81.5383C343.138 81.5383 342.413 81.4151 341.75 81.1686C341.095 80.9127 340.522 80.5525 340.029 80.0881C339.546 79.6236 339.167 79.0786 338.892 78.453C338.626 77.8274 338.494 77.1402 338.494 76.3914C338.494 75.6426 338.626 74.9554 338.892 74.3298C339.167 73.7042 339.55 73.1592 340.043 72.6947C340.536 72.2302 341.114 71.8748 341.778 71.6283C342.441 71.3724 343.171 71.2445 343.968 71.2445C344.849 71.2445 345.64 71.3914 346.342 71.6852C347.053 71.9791 347.65 72.4056 348.133 72.9648L346.655 74.3298C346.295 73.9506 345.901 73.671 345.475 73.4909C345.048 73.3013 344.584 73.2066 344.081 73.2066C343.598 73.2066 343.157 73.2824 342.759 73.434C342.361 73.5857 342.015 73.8037 341.721 74.0881C341.437 74.3724 341.214 74.7089 341.053 75.0975C340.901 75.4862 340.825 75.9174 340.825 76.3914C340.825 76.8558 340.901 77.2824 341.053 77.671C341.214 78.0596 341.437 78.4009 341.721 78.6947C342.015 78.9791 342.356 79.1971 342.745 79.3487C343.143 79.5004 343.579 79.5762 344.053 79.5762C344.508 79.5762 344.949 79.5051 345.375 79.3629C345.811 79.2113 346.233 78.9601 346.641 78.6094L347.949 80.2729C347.408 80.6805 346.778 80.9933 346.058 81.2113C345.347 81.4293 344.636 81.5383 343.925 81.5383ZM345.844 79.9743V76.235H347.949V80.2729L345.844 79.9743Z" fill="#171717"/>
<path d="M352.207 75.4246H356.998V77.216H352.207V75.4246ZM352.377 79.5193H357.794V81.3677H350.088V71.4151H357.609V73.2634H352.377V79.5193Z" fill="#171717"/>
<path d="M359.627 81.3677V71.4151H361.532L367.404 78.581H366.48V71.4151H368.755V81.3677H366.864L360.978 74.2018H361.902V81.3677H359.627Z" fill="#171717"/>
<path d="M375.873 81.5383C375.105 81.5383 374.389 81.4151 373.726 81.1686C373.072 80.9127 372.503 80.5525 372.02 80.0881C371.536 79.6236 371.157 79.0786 370.882 78.453C370.617 77.8274 370.484 77.1402 370.484 76.3914C370.484 75.6426 370.617 74.9554 370.882 74.3298C371.157 73.7042 371.536 73.1592 372.02 72.6947C372.513 72.2302 373.086 71.8748 373.74 71.6283C374.394 71.3724 375.11 71.2445 375.887 71.2445C376.749 71.2445 377.527 71.3961 378.219 71.6994C378.92 71.9933 379.508 72.4293 379.982 73.0075L378.503 74.3724C378.162 73.9838 377.783 73.6947 377.366 73.5051C376.949 73.3061 376.494 73.2066 376.001 73.2066C375.536 73.2066 375.11 73.2824 374.721 73.434C374.332 73.5857 373.996 73.8037 373.712 74.0881C373.427 74.3724 373.204 74.7089 373.043 75.0975C372.892 75.4862 372.816 75.9174 372.816 76.3914C372.816 76.8653 372.892 77.2966 373.043 77.6852C373.204 78.0738 373.427 78.4103 373.712 78.6947C373.996 78.9791 374.332 79.1971 374.721 79.3487C375.11 79.5004 375.536 79.5762 376.001 79.5762C376.494 79.5762 376.949 79.4814 377.366 79.2919C377.783 79.0928 378.162 78.7942 378.503 78.3961L379.982 79.7611C379.508 80.3393 378.92 80.78 378.219 81.0833C377.527 81.3866 376.745 81.5383 375.873 81.5383Z" fill="#171717"/>
<path d="M383.928 81.3677V77.3013L384.454 78.6947L380.075 71.4151H382.52L385.876 77.0028H384.468L387.838 71.4151H390.098L385.719 78.6947L386.231 77.3013V81.3677H383.928Z" fill="#171717"/>
<path d="M370.237 59.5074V24.9064H356.592V16.8653H393.751V24.9064H380.106V59.5074H370.237Z" fill="#171717"/>
<path d="M312.207 59.5074V16.8653H320.37L345.529 47.5676H341.569V16.8653H351.316V59.5074H343.214L317.994 28.8051H321.954V59.5074H312.207Z" fill="#171717"/>
<path d="M259.963 59.5074L278.969 16.8653H288.716L307.783 59.5074H297.427L281.832 21.8605H285.731L270.075 59.5074H259.963ZM269.466 50.3698L272.085 42.877H294.015L296.696 50.3698H269.466Z" fill="#171717"/>
<path d="M235.23 59.5074L216.833 16.8653H227.493L243.576 54.634H237.301L253.627 16.8653H263.435L244.977 59.5074H235.23Z" fill="#171717"/>
<path d="M202.628 59.5074V16.8654H212.496V59.5074H202.628Z" fill="#171717"/>
<path d="M157.831 59.5074V16.8653H176.289C180.107 16.8653 183.396 17.4948 186.158 18.7538C188.919 19.9721 191.052 21.7387 192.554 24.0536C194.057 26.3684 194.808 29.13 194.808 32.3383C194.808 35.506 194.057 38.2473 192.554 40.5621C191.052 42.8364 188.919 44.5827 186.158 45.801C183.396 47.0194 180.107 47.6285 176.289 47.6285H163.314L167.7 43.3034V59.5074H157.831ZM184.939 59.5074L174.279 44.0344H184.818L195.6 59.5074H184.939ZM167.7 44.3999L163.314 39.7702H175.741C178.787 39.7702 181.061 39.1204 182.564 37.8209C184.066 36.4807 184.818 34.6532 184.818 32.3383C184.818 29.9828 184.066 28.1553 182.564 26.8557C181.061 25.5562 178.787 24.9064 175.741 24.9064H163.314L167.7 20.2158V44.3999Z" fill="#171717"/>
</g>
<defs>
<clipPath id="clip0_646_737">
<rect width="394" height="85" fill="white"/>
</clipPath>
</defs>
</svg>
