<svg width="114" height="108" viewBox="0 0 114 108" fill="none" xmlns="http://www.w3.org/2000/svg">
<path d="M10.5843 106.664V102.464H12.4923C12.9483 102.464 13.3503 102.552 13.6983 102.728C14.0463 102.9 14.3183 103.142 14.5143 103.454C14.7103 103.766 14.8083 104.136 14.8083 104.564C14.8083 104.988 14.7103 105.358 14.5143 105.674C14.3183 105.986 14.0463 106.23 13.6983 106.406C13.3503 106.578 12.9483 106.664 12.4923 106.664H10.5843ZM11.5563 105.866H12.4443C12.7243 105.866 12.9663 105.814 13.1703 105.71C13.3783 105.602 13.5383 105.45 13.6503 105.254C13.7663 105.058 13.8243 104.828 13.8243 104.564C13.8243 104.296 13.7663 104.066 13.6503 103.874C13.5383 103.678 13.3783 103.528 13.1703 103.424C12.9663 103.316 12.7243 103.262 12.4443 103.262H11.5563V105.866Z" fill="#171717"/>
<path d="M16.4354 104.156H18.4574V104.912H16.4354V104.156ZM16.5074 105.884H18.7934V106.664H15.5414V102.464H18.7154V103.244H16.5074V105.884Z" fill="#171717"/>
<path d="M20.9468 106.736C20.6108 106.736 20.2888 106.692 19.9808 106.604C19.6728 106.512 19.4247 106.394 19.2367 106.25L19.5667 105.518C19.7467 105.646 19.9588 105.752 20.2028 105.836C20.4508 105.916 20.7008 105.956 20.9528 105.956C21.1448 105.956 21.2988 105.938 21.4148 105.902C21.5348 105.862 21.6228 105.808 21.6788 105.74C21.7348 105.672 21.7628 105.594 21.7628 105.506C21.7628 105.394 21.7188 105.306 21.6308 105.242C21.5428 105.174 21.4268 105.12 21.2828 105.08C21.1388 105.036 20.9787 104.996 20.8027 104.96C20.6307 104.92 20.4568 104.872 20.2808 104.816C20.1088 104.76 19.9508 104.688 19.8068 104.6C19.6628 104.512 19.5448 104.396 19.4528 104.252C19.3648 104.108 19.3208 103.924 19.3208 103.7C19.3208 103.46 19.3848 103.242 19.5128 103.046C19.6448 102.846 19.8407 102.688 20.1007 102.572C20.3647 102.452 20.6947 102.392 21.0907 102.392C21.3547 102.392 21.6148 102.424 21.8708 102.488C22.1268 102.548 22.3527 102.64 22.5487 102.764L22.2488 103.502C22.0528 103.39 21.8568 103.308 21.6608 103.256C21.4648 103.2 21.2728 103.172 21.0848 103.172C20.8968 103.172 20.7428 103.194 20.6228 103.238C20.5028 103.282 20.4167 103.34 20.3647 103.412C20.3127 103.48 20.2868 103.56 20.2868 103.652C20.2868 103.76 20.3308 103.848 20.4188 103.916C20.5068 103.98 20.6228 104.032 20.7668 104.072C20.9108 104.112 21.0688 104.152 21.2408 104.192C21.4168 104.232 21.5908 104.278 21.7628 104.33C21.9388 104.382 22.0988 104.452 22.2428 104.54C22.3867 104.628 22.5027 104.744 22.5907 104.888C22.6827 105.032 22.7288 105.214 22.7288 105.434C22.7288 105.67 22.6628 105.886 22.5308 106.082C22.3988 106.278 22.2008 106.436 21.9368 106.556C21.6768 106.676 21.3468 106.736 20.9468 106.736Z" fill="#171717"/>
<path d="M23.3929 106.664V102.464H24.3649V106.664H23.3929Z" fill="#171717"/>
<path d="M27.3897 106.736C27.0577 106.736 26.7517 106.684 26.4717 106.58C26.1957 106.472 25.9537 106.32 25.7457 106.124C25.5417 105.928 25.3817 105.698 25.2657 105.434C25.1537 105.17 25.0977 104.88 25.0977 104.564C25.0977 104.248 25.1537 103.958 25.2657 103.694C25.3817 103.43 25.5437 103.2 25.7517 103.004C25.9597 102.808 26.2037 102.658 26.4837 102.554C26.7637 102.446 27.0717 102.392 27.4077 102.392C27.7797 102.392 28.1137 102.454 28.4097 102.578C28.7097 102.702 28.9617 102.882 29.1657 103.118L28.5417 103.694C28.3897 103.534 28.2237 103.416 28.0437 103.34C27.8637 103.26 27.6677 103.22 27.4557 103.22C27.2517 103.22 27.0657 103.252 26.8977 103.316C26.7297 103.38 26.5837 103.472 26.4597 103.592C26.3397 103.712 26.2457 103.854 26.1777 104.018C26.1137 104.182 26.0817 104.364 26.0817 104.564C26.0817 104.76 26.1137 104.94 26.1777 105.104C26.2457 105.268 26.3397 105.412 26.4597 105.536C26.5837 105.656 26.7277 105.748 26.8917 105.812C27.0597 105.876 27.2437 105.908 27.4437 105.908C27.6357 105.908 27.8217 105.878 28.0017 105.818C28.1857 105.754 28.3637 105.648 28.5357 105.5L29.0877 106.202C28.8597 106.374 28.5937 106.506 28.2897 106.598C27.9897 106.69 27.6897 106.736 27.3897 106.736ZM28.1997 106.076V104.498H29.0877V106.202L28.1997 106.076Z" fill="#171717"/>
<path d="M29.9906 106.664V102.464H30.7946L33.2726 105.488H32.8826V102.464H33.8426V106.664H33.0446L30.5606 103.64H30.9506V106.664H29.9906Z" fill="#171717"/>
<path d="M37.8555 106.736C37.5475 106.736 37.2735 106.686 37.0335 106.586C36.7935 106.486 36.6035 106.35 36.4635 106.178C36.3235 106.006 36.2535 105.808 36.2535 105.584C36.2535 105.376 36.2995 105.19 36.3915 105.026C36.4835 104.858 36.6295 104.702 36.8295 104.558C37.0295 104.41 37.2835 104.266 37.5915 104.126C37.8155 104.022 37.9915 103.93 38.1195 103.85C38.2475 103.77 38.3375 103.694 38.3895 103.622C38.4415 103.546 38.4675 103.47 38.4675 103.394C38.4675 103.29 38.4315 103.206 38.3595 103.142C38.2915 103.078 38.1895 103.046 38.0535 103.046C37.9095 103.046 37.7975 103.082 37.7175 103.154C37.6375 103.226 37.5975 103.318 37.5975 103.43C37.5975 103.49 37.6095 103.55 37.6335 103.61C37.6575 103.666 37.7035 103.732 37.7715 103.808C37.8395 103.88 37.9355 103.974 38.0595 104.09L40.2735 106.142L39.7635 106.736L37.3215 104.468C37.1815 104.34 37.0695 104.22 36.9855 104.108C36.9015 103.996 36.8395 103.886 36.7995 103.778C36.7635 103.67 36.7455 103.558 36.7455 103.442C36.7455 103.238 36.7995 103.058 36.9075 102.902C37.0155 102.746 37.1675 102.626 37.3635 102.542C37.5595 102.454 37.7895 102.41 38.0535 102.41C38.2975 102.41 38.5075 102.45 38.6835 102.53C38.8635 102.606 39.0035 102.716 39.1035 102.86C39.2075 103.004 39.2595 103.176 39.2595 103.376C39.2595 103.552 39.2155 103.714 39.1275 103.862C39.0395 104.006 38.9015 104.142 38.7135 104.27C38.5295 104.398 38.2875 104.528 37.9875 104.66C37.7835 104.752 37.6215 104.842 37.5015 104.93C37.3855 105.014 37.3015 105.1 37.2495 105.188C37.1975 105.276 37.1715 105.374 37.1715 105.482C37.1715 105.582 37.2015 105.672 37.2615 105.752C37.3255 105.832 37.4135 105.894 37.5255 105.938C37.6375 105.982 37.7695 106.004 37.9215 106.004C38.1655 106.004 38.3895 105.948 38.5935 105.836C38.7975 105.72 38.9695 105.55 39.1095 105.326C39.2535 105.098 39.3555 104.822 39.4155 104.498L40.1655 104.732C40.0815 105.14 39.9315 105.494 39.7155 105.794C39.4995 106.094 39.2335 106.326 38.9175 106.49C38.6015 106.654 38.2475 106.736 37.8555 106.736Z" fill="#171717"/>
<path d="M42.6 106.664V102.464H43.404L45.192 105.428H44.766L46.524 102.464H47.322L47.334 106.664H46.422L46.416 103.862H46.584L45.18 106.22H44.742L43.308 103.862H43.512V106.664H42.6Z" fill="#171717"/>
<path d="M47.7784 106.664L49.6504 102.464H50.6104L52.4884 106.664H51.4684L49.9324 102.956H50.3164L48.7744 106.664H47.7784ZM48.7144 105.764L48.9724 105.026H51.1324L51.3964 105.764H48.7144Z" fill="#171717"/>
<path d="M52.9242 106.664V102.464H54.7422C55.1182 102.464 55.4422 102.526 55.7142 102.65C55.9862 102.77 56.1962 102.944 56.3442 103.172C56.4922 103.4 56.5662 103.672 56.5662 103.988C56.5662 104.3 56.4922 104.57 56.3442 104.798C56.1962 105.022 55.9862 105.194 55.7142 105.314C55.4422 105.434 55.1182 105.494 54.7422 105.494H53.4642L53.8962 105.068V106.664H52.9242ZM55.5942 106.664L54.5442 105.14H55.5822L56.6442 106.664H55.5942ZM53.8962 105.176L53.4642 104.72H54.6882C54.9882 104.72 55.2122 104.656 55.3602 104.528C55.5082 104.396 55.5822 104.216 55.5822 103.988C55.5822 103.756 55.5082 103.576 55.3602 103.448C55.2122 103.32 54.9882 103.256 54.6882 103.256H53.4642L53.8962 102.794V105.176Z" fill="#171717"/>
<path d="M58.2063 105.704L58.1523 104.582L60.1623 102.464H61.2423L59.4303 104.414L58.8903 104.99L58.2063 105.704ZM57.3363 106.664V102.464H58.3023V106.664H57.3363ZM60.2103 106.664L58.7163 104.834L59.3523 104.144L61.3443 106.664H60.2103Z" fill="#171717"/>
<path d="M62.6717 104.156H64.6937V104.912H62.6717V104.156ZM62.7437 105.884H65.0297V106.664H61.7777V102.464H64.9517V103.244H62.7437V105.884Z" fill="#171717"/>
<path d="M66.6731 106.664V103.256H65.3291V102.464H68.9891V103.256H67.6451V106.664H66.6731Z" fill="#171717"/>
<path d="M69.5121 106.664V102.464H70.4841V106.664H69.5121Z" fill="#171717"/>
<path d="M71.4808 106.664V102.464H72.2848L74.7628 105.488H74.3728V102.464H75.3328V106.664H74.5348L72.0508 103.64H72.4408V106.664H71.4808Z" fill="#171717"/>
<path d="M78.3545 106.736C78.0225 106.736 77.7165 106.684 77.4365 106.58C77.1605 106.472 76.9185 106.32 76.7105 106.124C76.5065 105.928 76.3465 105.698 76.2305 105.434C76.1185 105.17 76.0625 104.88 76.0625 104.564C76.0625 104.248 76.1185 103.958 76.2305 103.694C76.3465 103.43 76.5085 103.2 76.7165 103.004C76.9245 102.808 77.1685 102.658 77.4485 102.554C77.7285 102.446 78.0365 102.392 78.3725 102.392C78.7445 102.392 79.0785 102.454 79.3745 102.578C79.6745 102.702 79.9265 102.882 80.1305 103.118L79.5065 103.694C79.3545 103.534 79.1885 103.416 79.0085 103.34C78.8285 103.26 78.6325 103.22 78.4205 103.22C78.2165 103.22 78.0305 103.252 77.8625 103.316C77.6945 103.38 77.5485 103.472 77.4245 103.592C77.3045 103.712 77.2105 103.854 77.1425 104.018C77.0785 104.182 77.0465 104.364 77.0465 104.564C77.0465 104.76 77.0785 104.94 77.1425 105.104C77.2105 105.268 77.3045 105.412 77.4245 105.536C77.5485 105.656 77.6925 105.748 77.8565 105.812C78.0245 105.876 78.2085 105.908 78.4085 105.908C78.6005 105.908 78.7865 105.878 78.9665 105.818C79.1505 105.754 79.3285 105.648 79.5005 105.5L80.0525 106.202C79.8245 106.374 79.5585 106.506 79.2545 106.598C78.9545 106.69 78.6545 106.736 78.3545 106.736ZM79.1645 106.076V104.498H80.0525V106.202L79.1645 106.076Z" fill="#171717"/>
<path d="M82.1026 106.664L83.9746 102.464H84.9346L86.8126 106.664H85.7926L84.2566 102.956H84.6406L83.0986 106.664H82.1026ZM83.0386 105.764L83.2966 105.026H85.4566L85.7206 105.764H83.0386Z" fill="#171717"/>
<path d="M89.2178 106.736C88.8858 106.736 88.5798 106.684 88.2998 106.58C88.0238 106.472 87.7818 106.32 87.5738 106.124C87.3698 105.928 87.2098 105.698 87.0938 105.434C86.9818 105.17 86.9258 104.88 86.9258 104.564C86.9258 104.248 86.9818 103.958 87.0938 103.694C87.2098 103.43 87.3718 103.2 87.5798 103.004C87.7878 102.808 88.0318 102.658 88.3118 102.554C88.5918 102.446 88.8998 102.392 89.2358 102.392C89.6078 102.392 89.9418 102.454 90.2378 102.578C90.5378 102.702 90.7898 102.882 90.9938 103.118L90.3698 103.694C90.2178 103.534 90.0518 103.416 89.8718 103.34C89.6918 103.26 89.4958 103.22 89.2838 103.22C89.0798 103.22 88.8938 103.252 88.7258 103.316C88.5578 103.38 88.4118 103.472 88.2878 103.592C88.1678 103.712 88.0738 103.854 88.0058 104.018C87.9418 104.182 87.9098 104.364 87.9098 104.564C87.9098 104.76 87.9418 104.94 88.0058 105.104C88.0738 105.268 88.1678 105.412 88.2878 105.536C88.4118 105.656 88.5558 105.748 88.7198 105.812C88.8878 105.876 89.0718 105.908 89.2718 105.908C89.4638 105.908 89.6498 105.878 89.8298 105.818C90.0138 105.754 90.1918 105.648 90.3638 105.5L90.9158 106.202C90.6878 106.374 90.4218 106.506 90.1178 106.598C89.8178 106.69 89.5178 106.736 89.2178 106.736ZM90.0278 106.076V104.498H90.9158V106.202L90.0278 106.076Z" fill="#171717"/>
<path d="M92.7127 104.156H94.7347V104.912H92.7127V104.156ZM92.7847 105.884H95.0707V106.664H91.8187V102.464H94.9927V103.244H92.7847V105.884Z" fill="#171717"/>
<path d="M95.8441 106.664V102.464H96.6481L99.1261 105.488H98.7361V102.464H99.6961V106.664H98.8981L96.4141 103.64H96.8041V106.664H95.8441Z" fill="#171717"/>
<path d="M102.7 106.736C102.376 106.736 102.074 106.684 101.794 106.58C101.518 106.472 101.278 106.32 101.074 106.124C100.87 105.928 100.71 105.698 100.594 105.434C100.482 105.17 100.426 104.88 100.426 104.564C100.426 104.248 100.482 103.958 100.594 103.694C100.71 103.43 100.87 103.2 101.074 103.004C101.282 102.808 101.524 102.658 101.8 102.554C102.076 102.446 102.378 102.392 102.706 102.392C103.07 102.392 103.398 102.456 103.69 102.584C103.986 102.708 104.234 102.892 104.434 103.136L103.81 103.712C103.666 103.548 103.506 103.426 103.33 103.346C103.154 103.262 102.962 103.22 102.754 103.22C102.558 103.22 102.378 103.252 102.214 103.316C102.05 103.38 101.908 103.472 101.788 103.592C101.668 103.712 101.574 103.854 101.506 104.018C101.442 104.182 101.41 104.364 101.41 104.564C101.41 104.764 101.442 104.946 101.506 105.11C101.574 105.274 101.668 105.416 101.788 105.536C101.908 105.656 102.05 105.748 102.214 105.812C102.378 105.876 102.558 105.908 102.754 105.908C102.962 105.908 103.154 105.868 103.33 105.788C103.506 105.704 103.666 105.578 103.81 105.41L104.434 105.986C104.234 106.23 103.986 106.416 103.69 106.544C103.398 106.672 103.068 106.736 102.7 106.736Z" fill="#171717"/>
<path d="M106.099 106.664V104.948L106.321 105.536L104.473 102.464H105.505L106.921 104.822H106.327L107.749 102.464H108.703L106.855 105.536L107.071 104.948V106.664H106.099Z" fill="#171717"/>
<path d="M49.2843 70.533L34.4843 48.933H20.4843V70.533H10.4843V39.333H35.9523C39.7663 39.333 43.2363 37.017 44.5863 33.451C47.1803 26.599 42.1883 20.133 35.6863 20.133H0.486328V10.533H36.2863C37.7283 10.533 39.1343 10.691 40.4863 10.989C49.1823 12.909 55.6863 20.261 55.6863 29.533C55.6863 37.463 50.9263 44.283 44.1083 47.291L60.4863 70.533H49.2843ZM60.4843 36.847L59.2623 37.273L53.9423 46.421C53.6623 46.923 53.6863 47.541 54.0023 48.021L70.3723 72.593C70.7643 72.985 71.2783 72.933 71.7603 72.933H72.0123C72.5723 72.899 73.0703 72.853 73.3123 72.347L78.0943 64.013C78.4243 63.235 77.7823 62.207 77.1283 62.039C75.5423 61.633 74.2823 60.003 74.1443 59.763M61.0523 34.271L101.61 15.543C101.844 15.435 102.116 15.573 102.168 15.825L103.854 23.909C103.928 24.269 104.408 24.345 104.592 24.027L113.46 8.669C113.576 8.467 113.498 8.211 113.288 8.109L99.2483 1.305C98.9423 1.157 98.6043 1.433 98.6863 1.761L100.804 10.213C100.85 10.397 100.76 10.589 100.588 10.671L60.7143 29.623C60.5743 29.689 60.4863 29.829 60.4863 29.983V33.905C60.4863 34.197 60.7883 34.391 61.0543 34.267L61.0523 34.271ZM76.3603 58.125C78.5883 61.209 81.5583 58.125 81.5583 58.125L99.6123 27.079C99.7583 26.835 99.5643 26.537 99.2603 26.537H89.2223C88.7903 26.537 88.3923 26.749 88.1783 27.095L72.9143 52.963C72.9143 52.963 74.1303 55.041 76.3563 58.127L76.3603 58.125Z" fill="#171717"/>
<path d="M100.122 97.659V83.0573H94.3635V79.664H110.045V83.0573H104.286V97.659H100.122Z" fill="#171717"/>
<path d="M75.633 97.659V79.664H79.0778L89.6948 92.6204H88.0238V79.664H92.137V97.659H88.7179L78.0752 84.7026H79.7462V97.659H75.633Z" fill="#171717"/>
<path d="M53.5862 97.659L61.6068 79.664H65.7199L73.7662 97.659H69.396L62.815 81.772H64.4603L57.8535 97.659H53.5862ZM57.5965 93.8029L58.7019 90.6409H67.9564L69.0875 93.8029H57.5965Z" fill="#171717"/>
<path d="M43.1489 97.659L35.3854 79.664H39.8841L46.6708 95.6024H44.023L50.9125 79.664H55.0513L47.2621 97.659H43.1489Z" fill="#171717"/>
<path d="M29.3905 97.659V79.664H33.555V97.659H29.3905Z" fill="#171717"/>
<path d="M10.4866 97.659V79.664H18.2758C19.8868 79.664 21.275 79.9297 22.4403 80.4609C23.6057 80.9751 24.5055 81.7206 25.1396 82.6974C25.7737 83.6743 26.0908 84.8397 26.0908 86.1936C26.0908 87.5304 25.7737 88.6872 25.1396 89.6641C24.5055 90.6238 23.6057 91.3607 22.4403 91.8749C21.275 92.389 19.8868 92.6461 18.2758 92.6461H12.8002L14.6511 90.8209V97.659H10.4866ZM21.9262 97.659L17.4275 91.1294H21.8748L26.4249 97.659H21.9262ZM14.6511 91.2836L12.8002 89.3299H18.0444C19.3298 89.3299 20.2895 89.0557 20.9236 88.5072C21.5577 87.9417 21.8748 87.1705 21.8748 86.1936C21.8748 85.1996 21.5577 84.4284 20.9236 83.88C20.2895 83.3315 19.3298 83.0573 18.0444 83.0573H12.8002L14.6511 81.0779V91.2836Z" fill="#171717"/>
</svg>
